<?xml version="1.0" encoding="iso-8859-1"?>
<!-- Generator: Adobe Illustrator 19.0.0, SVG Export Plug-In . SVG Version: 6.00 Build 0)  -->
<svg version="1.1" id="Layer_1" xmlns="http://www.w3.org/2000/svg" xmlns:xlink="http://www.w3.org/1999/xlink" x="0px" y="0px"
	 viewBox="0 0 511.999 511.999" style="enable-background:new 0 0 511.999 511.999;" xml:space="preserve">
<path style="fill:#CEC73C;" d="M489.841,290.581c0,35.055-13.377,70.11-40.119,96.864c-53.496,53.496-140.232,53.496-193.716,0
	h-0.012c-26.742,26.754-61.797,40.119-96.852,40.119s-70.11-13.365-96.864-40.119s-40.119-61.809-40.119-96.864
	s13.365-70.11,40.119-96.852L255.994,0l193.728,193.728C476.464,220.47,489.841,255.525,489.841,290.581z"/>
<path style="fill:#BAB031;" d="M489.841,290.581c0,35.055-13.377,70.11-40.119,96.864c-53.496,53.496-140.232,53.496-193.716,0
	h-0.012V0l193.728,193.728C476.464,220.47,489.841,255.525,489.841,290.581z"/>
<path style="fill:#B27214;" d="M320.965,257.624l-56.523,46.775l-2.089-66.969l41.179-53.41l-41.84,32.258L256,33.808
	l-5.693,182.496l-41.84-32.285l41.182,53.369l-2.09,67.009l-56.524-46.774l55.877,67.523l-5.363,171.943
	c-0.008,0.284-0.009,0.614,0,0.902c0.249,7.982,6.921,14.25,14.903,14.001c7.982-0.249,14.25-6.921,14.001-14.903l-5.363-171.945
	L320.965,257.624z"/>
<g>
</g>
<g>
</g>
<g>
</g>
<g>
</g>
<g>
</g>
<g>
</g>
<g>
</g>
<g>
</g>
<g>
</g>
<g>
</g>
<g>
</g>
<g>
</g>
<g>
</g>
<g>
</g>
<g>
</g>
</svg>
