<?xml version="1.0" encoding="iso-8859-1"?>
<!-- Generator: Adobe Illustrator 19.0.0, SVG Export Plug-In . SVG Version: 6.00 Build 0)  -->
<svg version="1.1" id="Layer_1" xmlns="http://www.w3.org/2000/svg" xmlns:xlink="http://www.w3.org/1999/xlink" x="0px" y="0px"
	 viewBox="0 0 512 512" style="enable-background:new 0 0 512 512;" xml:space="preserve">
<path style="fill:#CED663;" d="M512,241.696c-28.024,42.777-53.46,68.625-74.096,84.249c-25.165,19.059-39.024,49.331-38.354,80.908
	c0.353,16.342,1.176,47.931-16.495,45.33c-121.967-17.895-127.05-96.708-127.05-96.708s-5.118,79.602-127.05,96.708
	c-17.695,2.482-16.847-28.989-16.506-45.33c0.671-31.577-13.177-61.848-38.354-80.908C53.472,310.321,28.024,284.473,0,241.696
	c0,0,49.86-63.06,113.473-66.66c16.424-0.929,30.46-12.059,35.013-27.859c14.671-50.907,38.177-107.85,107.52-142.521
	c69.343,34.671,92.837,91.614,107.508,142.521c4.553,15.8,18.589,26.93,35.013,27.859C462.14,178.635,512,241.696,512,241.696z"/>
<path style="fill:#B2B548;" d="M256.006,4.655v350.82c0,0-5.118,79.602-127.05,96.708c-17.695,2.482-16.847-28.989-16.506-45.33
	c0.671-31.577-13.177-61.848-38.354-80.908C53.472,310.321,28.024,284.473,0,241.696c0,0,49.86-63.06,113.473-66.66
	c16.424-0.929,30.46-12.059,35.013-27.859C163.157,96.269,186.663,39.326,256.006,4.655z"/>
<path style="fill:#B27214;" d="M440.463,254.692c-0.844-3.137-4.073-4.995-7.21-4.151c-96.474,25.981-146.762,60.725-168.427,79.455
	V211.063l57.421-53.114c2.384-2.206,2.529-5.928,0.324-8.312c-2.208-2.386-5.928-2.529-8.313-0.324l-49.432,45.723V42.584
	c0-4.873-3.949-8.824-8.824-8.824s-8.824,3.951-8.824,8.824v152.453l-49.432-45.725c-2.382-2.206-6.106-2.061-8.313,0.324
	c-2.206,2.385-2.061,6.106,0.324,8.312l57.421,53.114v118.933c-21.666-18.73-71.953-53.474-168.429-79.455
	c-3.135-0.842-6.365,1.013-7.21,4.151c-0.845,3.138,1.013,6.365,4.151,7.21c108.994,29.352,157.766,70.652,171.487,84.202v152.419
	c0,4.873,3.949,8.824,8.824,8.824s8.824-3.951,8.824-8.824V346.104c13.723-13.55,62.494-54.851,171.486-84.201
	C439.45,261.058,441.308,257.83,440.463,254.692z"/>
<g>
</g>
<g>
</g>
<g>
</g>
<g>
</g>
<g>
</g>
<g>
</g>
<g>
</g>
<g>
</g>
<g>
</g>
<g>
</g>
<g>
</g>
<g>
</g>
<g>
</g>
<g>
</g>
<g>
</g>
</svg>
