<?xml version="1.0" encoding="iso-8859-1"?>
<!-- Generator: Adobe Illustrator 19.0.0, SVG Export Plug-In . SVG Version: 6.00 Build 0)  -->
<svg version="1.1" id="Capa_1" xmlns="http://www.w3.org/2000/svg" xmlns:xlink="http://www.w3.org/1999/xlink" x="0px" y="0px"
	 viewBox="0 0 512 512" style="enable-background:new 0 0 512 512;" xml:space="preserve">
<circle style="fill:#175D76;" cx="256" cy="256" r="256"/>
<path style="fill:#00263F;" d="M511.662,269.257L410.067,167.662l-10.422,13.048L286.772,67.838l-107.72,260.845L97.66,324.34
	l186.151,186.151C407.79,497.095,505.237,395.199,511.662,269.257z"/>
<path style="fill:#FFDC00;" d="M256.967,427.866c0,0,126.396-76.096,154.126-100.601c27.73-24.505,27.73-35.468,18.057-42.387
	s-66.423,5.629-63.843-13.072c2.579-18.701,78.03-98.022,32.889-112.854c-45.142-14.832-69.918,42.188-97.003,48.637
	s-3.599-64.114-2.954-108.61C298.884,54.48,256,58.027,256,58.027s-42.884-3.547-42.24,40.95s24.131,115.059-2.954,108.61
	s-51.861-63.469-97.003-48.637s30.309,94.152,32.889,112.854s-54.17,6.154-63.843,13.072s-9.673,17.882,18.057,42.387
	s154.126,100.601,154.126,100.601h1.935V427.866z"/>
<path style="fill:#FFC000;" d="M429.15,284.877c-9.673-6.919-66.423,5.629-63.843-13.073c2.579-18.701,78.03-98.021,32.889-112.854
	c-45.141-14.832-69.917,42.188-97.002,48.636s-3.599-64.114-2.954-108.61S256,58.027,256,58.027s-0.119-0.01-0.333-0.021v369.859
	h1.301c0,0,126.396-76.096,154.126-100.601C438.823,302.759,438.823,291.796,429.15,284.877z"/>
<polygon style="fill:#FF6838;" points="310.321,329.821 296.179,315.679 266,345.857 266,236.014 246,236.014 246,279.857 
	226.071,259.929 211.929,274.071 246,308.143 246,451.5 266,451.5 266,374 266.071,374.071 "/>
<polygon style="fill:#AE4E32;" points="296.179,315.679 266,345.857 266,236.014 255.667,236.014 255.667,451.5 266,451.5 266,374 
	266.071,374.071 310.321,329.821 "/>
<g>
</g>
<g>
</g>
<g>
</g>
<g>
</g>
<g>
</g>
<g>
</g>
<g>
</g>
<g>
</g>
<g>
</g>
<g>
</g>
<g>
</g>
<g>
</g>
<g>
</g>
<g>
</g>
<g>
</g>
</svg>
