<?xml version="1.0" encoding="iso-8859-1"?>
<!-- Generator: Adobe Illustrator 19.0.0, SVG Export Plug-In . SVG Version: 6.00 Build 0)  -->
<svg version="1.1" id="Layer_1" xmlns="http://www.w3.org/2000/svg" xmlns:xlink="http://www.w3.org/1999/xlink" x="0px" y="0px"
	 viewBox="0 0 473.931 473.931" style="enable-background:new 0 0 473.931 473.931;" xml:space="preserve">
<circle style="fill:#E8E8DF;" cx="236.966" cy="236.966" r="236.966"/>
<path style="fill:#B1C635;" d="M410.018,169.143c-6.312,3.113-36.172,27.281-44.77-3.749c0,0-35.045,36.437-44.198-1.272
	c0,0-5.833,11.618-22.956,26.858c5.066-32.841,10.627-50.615,10.627-50.615c-35.663,37.234-39.049-41.863-39.049-41.863
	c-26.155,9.908-27.221-33.047-28.8-40.961c0,0-1.897,50.791-29.747,39.251c0,0,3.697,61.346-39.988,40.98
	c0,0,5.553,16.643,10.058,49.56c-16.056-15.719-21.227-23.21-21.227-23.21c-9.149,37.709-44.198,1.272-44.198,1.272
	c-8.599,31.03-38.458,6.862-44.77,3.749c0,0,33.451,31.614,9.272,51.696c0,0,39.367,29.526,11.629,50.761
	c0,0,83.849,22.424,50.289,68.272c0,0,64.631,6.784,82.39-6.847c4.412-3.39,9.541-12.696,14.05-12.561
	c4.973,0.146,15.757,7.397,19.599,13.358c12.206,18.915,80.586,6.05,80.586,6.05c-33.56-45.848,50.289-68.272,50.289-68.272
	c-27.738-21.238,11.629-50.761,11.629-50.761C376.567,200.757,410.018,169.143,410.018,169.143z"/>
<g>
	<path style="fill:#857856;" d="M236.838,296.231c0,0,9.197,111.811-54.368,126.262h11.558
		c63.565-14.447,53.937-135.792,53.937-135.792L236.838,296.231z"/>
	<path style="fill:#857856;" d="M236.771,321.245c0,0,8.887-107.186,4.209-261.534c0,0,14.032,228.951,6.701,264.498
		C247.682,324.205,239.11,318.282,236.771,321.245z"/>
	<polygon style="fill:#857856;" points="410.018,169.143 242.384,278.368 244.255,290.529 	"/>
	<polygon style="fill:#857856;" points="75.875,172.664 238.159,305.238 241.448,295.206 	"/>
</g>
<g>
</g>
<g>
</g>
<g>
</g>
<g>
</g>
<g>
</g>
<g>
</g>
<g>
</g>
<g>
</g>
<g>
</g>
<g>
</g>
<g>
</g>
<g>
</g>
<g>
</g>
<g>
</g>
<g>
</g>
</svg>
