<?xml version="1.0" encoding="iso-8859-1"?>
<!-- Generator: Adobe Illustrator 19.0.0, SVG Export Plug-In . SVG Version: 6.00 Build 0)  -->
<svg version="1.1" id="Layer_1" xmlns="http://www.w3.org/2000/svg" xmlns:xlink="http://www.w3.org/1999/xlink" x="0px" y="0px"
	 viewBox="0 0 512 512" style="enable-background:new 0 0 512 512;" xml:space="preserve">
<g>
	<circle style="fill:#3D99E2;" cx="255.994" cy="255.994" r="255.994"/>
	<circle style="fill:#3D99E2;" cx="255.994" cy="255.994" r="255.994"/>
</g>
<circle style="fill:#5AAAE7;" cx="146.118" cy="143.096" r="87.112"/>
<path id="SVGCleanerId_0" style="fill:#1D81CD;" d="M428.333,66.699c41.434,45.487,66.698,105.957,66.698,172.332
	c0,141.384-114.615,255.999-255.999,255.999c-66.375,0-126.847-25.266-172.332-66.698C113.521,479.736,180.991,512,256,512
	C397.385,512,512,397.385,512,256.001C512,180.99,479.735,113.521,428.333,66.699z"/>
<g>
	<path id="SVGCleanerId_0_1_" style="fill:#1D81CD;" d="M428.333,66.699c41.434,45.487,66.698,105.957,66.698,172.332
		c0,141.384-114.615,255.999-255.999,255.999c-66.375,0-126.847-25.266-172.332-66.698C113.521,479.736,180.991,512,256,512
		C397.385,512,512,397.385,512,256.001C512,180.99,479.735,113.521,428.333,66.699z"/>
</g>
<path style="fill:#8FCC05;" d="M469.968,396.565C496.53,356.216,512,307.919,512,255.999C512,114.615,397.385,0,255.999,0
	c-15.336,0-30.355,1.353-44.949,3.938l-13.46,16.475L66.698,95.094l-33.107,128.56l50.888,93.813l-20.75,24.064l60.923,134.233
	c16.4,9.823,33.991,17.856,52.505,23.845l10.718-0.175l98.938-71.607l-110.605-66.167l-44.91-53.658l-44.24,6.553l-47.505-91.102
	l32.354-32.99l36.256,20.696l112.268-57.418l-28.047-75.811l29.113-11.233l16.317-1.531l12.523,53.442l18.807-44.986l1.15-20.856
	l14.983-9.32l61.786,39.311l8.214,91.088l18.781,20.169l23.697-59.566l52.223-10.889l-12.186,50.708l-32.05-0.181l-66.108,99.214
	l58.348,69.693l75.627-31.661L469.968,396.565z"/>
<g>
	<path style="fill:#9CDD03;" d="M59.009,143.094c0,17.903,5.408,34.542,14.67,48.382l34.484,19.686l112.268-57.418l-28.047-75.811
		l7.893-3.046c-14.871-11.823-33.68-18.905-54.155-18.905c-4.228,0-8.381,0.318-12.447,0.899L78.259,88.498
		C66.226,103.437,59.009,122.419,59.009,143.094z"/>
	<polygon style="fill:#9CDD03;" points="99.065,239.015 146.12,295.661 87.059,263.003 	"/>
</g>
<path style="fill:#86BC06;" d="M511.908,249.181c-0.02-0.737-0.059-1.469-0.084-2.205c-0.053-1.525-0.105-3.05-0.184-4.568
	c-0.046-0.881-0.112-1.758-0.167-2.636c-0.086-1.366-0.168-2.732-0.275-4.093c-0.073-0.934-0.164-1.862-0.248-2.793
	c-0.116-1.3-0.231-2.599-0.367-3.893c-0.1-0.954-0.215-1.902-0.326-2.853c-0.146-1.263-0.294-2.526-0.459-3.784
	c-0.127-0.96-0.266-1.917-0.403-2.873c-0.177-1.241-0.358-2.481-0.552-3.716c-0.152-0.958-0.313-1.911-0.475-2.866
	c-0.208-1.227-0.421-2.452-0.646-3.672c-0.176-0.949-0.359-1.896-0.545-2.841c-0.239-1.22-0.486-2.437-0.743-3.651
	c-0.198-0.933-0.4-1.864-0.609-2.793c-0.272-1.219-0.554-2.435-0.844-3.648c-0.219-0.913-0.439-1.826-0.667-2.735
	c-0.306-1.223-0.625-2.443-0.949-3.66c-0.236-0.886-0.473-1.77-0.718-2.653c-0.345-1.24-0.704-2.475-1.068-3.708
	c-0.25-0.846-0.497-1.694-0.754-2.536c-0.388-1.267-0.792-2.528-1.198-3.787c-0.258-0.799-0.512-1.599-0.777-2.395
	c-0.439-1.314-0.897-2.62-1.357-3.925c-0.256-0.727-0.505-1.457-0.768-2.18c-0.51-1.406-1.041-2.802-1.576-4.197
	c-0.234-0.613-0.46-1.229-0.7-1.839c-0.634-1.619-1.291-3.226-1.957-4.828c-0.156-0.375-0.304-0.755-0.462-1.129
	c-2.535-6.019-5.293-11.92-8.265-17.694c-0.157-0.305-0.322-0.606-0.48-0.911c-0.829-1.595-1.669-3.184-2.53-4.759
	c-0.249-0.454-0.506-0.901-0.757-1.354c-0.787-1.419-1.58-2.834-2.393-4.235c-0.3-0.518-0.61-1.03-0.914-1.545
	c-0.782-1.327-1.57-2.65-2.375-3.961c-0.336-0.546-0.679-1.087-1.018-1.631c-0.793-1.27-1.593-2.537-2.407-3.791
	c-0.361-0.556-0.728-1.107-1.093-1.66c-0.814-1.232-1.633-2.459-2.468-3.676c-0.381-0.554-0.764-1.106-1.149-1.657
	c-0.84-1.205-1.688-2.404-2.547-3.593c-0.392-0.543-0.787-1.083-1.184-1.623c-0.873-1.189-1.757-2.37-2.651-3.545
	c-0.397-0.523-0.797-1.044-1.198-1.563c-0.915-1.183-1.84-2.356-2.775-3.522c-0.396-0.495-0.793-0.988-1.192-1.48
	c-0.964-1.185-1.942-2.359-2.927-3.526c-0.385-0.456-0.768-0.914-1.155-1.368c-1.029-1.202-2.072-2.391-3.123-3.574
	c-0.359-0.404-0.713-0.809-1.074-1.211c-1.116-1.24-2.247-2.466-3.387-3.684c-0.31-0.33-0.615-0.665-0.925-0.994
	c-1.244-1.315-2.505-2.615-3.777-3.904c-0.216-0.22-0.43-0.443-0.647-0.663c-1.473-1.483-2.962-2.949-4.471-4.395
	c-0.021-0.02-0.041-0.04-0.062-0.06c-1.566-1.5-3.151-2.981-4.755-4.442c41.434,45.487,66.699,105.957,66.699,172.332
	c0,37.759-8.18,73.605-22.857,105.872l-2.206,51.661c3.308-5.025,6.444-10.175,9.4-15.439c0.026-0.046,0.051-0.092,0.077-0.138
	c2.171-3.872,4.243-7.807,6.216-11.8c0.048-0.097,0.096-0.193,0.144-0.29c0.628-1.277,1.245-2.559,1.853-3.847
	c0.085-0.178,0.166-0.358,0.25-0.535c1.774-3.784,3.457-7.62,5.048-11.501c0.161-0.393,0.323-0.786,0.482-1.181
	c0.471-1.164,0.934-2.331,1.388-3.503c0.157-0.406,0.308-0.814,0.463-1.219c0.834-2.19,1.64-4.394,2.415-6.612
	c0.146-0.419,0.298-0.835,0.442-1.256c0.363-1.054,0.713-2.114,1.062-3.175c0.224-0.68,0.444-1.359,0.663-2.041
	c0.324-1.013,0.646-2.027,0.958-3.046c0.249-0.814,0.487-1.631,0.729-2.448c0.453-1.535,0.892-3.076,1.316-4.624
	c0.257-0.935,0.513-1.87,0.76-2.809c0.233-0.888,0.458-1.78,0.682-2.672c0.243-0.968,0.479-1.939,0.711-2.911
	c0.197-0.827,0.396-1.654,0.586-2.484c0.379-1.665,0.745-3.335,1.091-5.012c0.136-0.658,0.259-1.319,0.39-1.978
	c0.241-1.213,0.476-2.427,0.698-3.646c0.137-0.748,0.27-1.497,0.4-2.248c0.22-1.262,0.428-2.527,0.628-3.796
	c0.097-0.611,0.199-1.219,0.292-1.831c0.273-1.809,0.527-3.624,0.762-5.446c0.073-0.567,0.137-1.137,0.207-1.704
	c0.169-1.381,0.328-2.766,0.475-4.153c0.068-0.641,0.135-1.283,0.198-1.926c0.155-1.579,0.296-3.161,0.421-4.748
	c0.028-0.351,0.062-0.701,0.088-1.052c0.144-1.917,0.264-3.841,0.366-5.77c0.029-0.543,0.051-1.087,0.076-1.631
	c0.069-1.481,0.125-2.963,0.169-4.45c0.017-0.573,0.034-1.145,0.048-1.718c0.045-1.97,0.075-3.944,0.075-5.926
	C512,253.72,511.968,251.447,511.908,249.181z"/>
<path style="fill:#8FCC05;" d="M187.876,499.435l10.535-7.625c-27.852-4.442-54.202-13.374-78.291-26.034l4.526,9.971
	c0.226,0.135,0.451,0.271,0.677,0.406c1.584,0.942,3.181,1.868,4.787,2.776c0.417,0.236,0.833,0.474,1.253,0.708
	c1.709,0.954,3.43,1.887,5.162,2.803c0.316,0.167,0.629,0.338,0.946,0.503c1.96,1.025,3.933,2.026,5.921,3.002
	c0.087,0.043,0.173,0.087,0.259,0.13c10.767,5.266,21.957,9.799,33.508,13.534L187.876,499.435z"/>
<g>
</g>
<g>
</g>
<g>
</g>
<g>
</g>
<g>
</g>
<g>
</g>
<g>
</g>
<g>
</g>
<g>
</g>
<g>
</g>
<g>
</g>
<g>
</g>
<g>
</g>
<g>
</g>
<g>
</g>
</svg>
