<?xml version="1.0" encoding="iso-8859-1"?>
<!-- Generator: Adobe Illustrator 19.0.0, SVG Export Plug-In . SVG Version: 6.00 Build 0)  -->
<svg version="1.1" id="Capa_1" xmlns="http://www.w3.org/2000/svg" xmlns:xlink="http://www.w3.org/1999/xlink" x="0px" y="0px"
	 viewBox="0 0 512 512" style="enable-background:new 0 0 512 512;" xml:space="preserve">
<g>
	<path style="fill:#4DBA69;" d="M270.763,480.873c0.394-52.969-23.095-104.863-66.246-139.29c-6.4-5.107-13.226-9.837-20.479-14.121
		c-56.237-33.222-123.384-31.67-176.482-1.777C7,386.615,38.047,446.174,94.283,479.396c56.237,33.222,123.384,31.67,176.482,1.777
		C270.766,481.073,270.762,480.973,270.763,480.873z"/>
	<path style="fill:#4DBA69;" d="M433.887,8.742c-97.74,18.982-182.977,88.115-217.829,188.993
		c-16.555,47.919-19.744,97.222-11.543,143.848c43.15,34.428,66.639,86.322,66.246,139.29l0.009,0.011
		c97.74-18.982,182.977-88.115,217.829-188.993C523.451,191.013,499.067,84.009,433.887,8.742z"/>
</g>
<g>
	<path style="fill:#378B4F;" d="M275.959,360.583c-18.135-21.063-27.546-48.275-26.951-76.064
		c0.607-28.353,5.574-57.096,15.333-85.344c30.2-87.414,99.431-150.234,181.46-175.723c-3.805-5.025-7.776-9.932-11.914-14.711
		c-97.74,18.982-182.977,88.115-217.829,188.993c-16.555,47.919-19.744,97.222-11.543,143.848
		c43.15,34.428,66.639,86.322,66.246,139.29l0.009,0.011c15.895-3.087,31.456-7.509,46.527-13.169
		C316.236,428.71,301.859,390.664,275.959,360.583z"/>
	<path style="fill:#378B4F;" d="M270.763,480.873L7.556,325.684C7,386.615,38.047,446.174,94.283,479.396
		c56.237,33.222,123.384,31.67,176.482,1.777C270.766,481.073,270.762,480.973,270.763,480.873z"/>
</g>
<path d="M506.154,139.213C496.015,89.199,472.999,42.374,439.594,3.8l-2.859-3.301l-4.287,0.832
	c-50.092,9.728-97.104,32.359-135.954,65.449c-40.027,34.092-70.308,78.522-87.571,128.489
	c-14.419,41.739-19.318,86.27-14.401,129.833c-2.194-1.425-4.404-2.817-6.645-4.141c-28.356-16.751-60.661-25.606-93.42-25.606
	c-31.675,0-63.006,8.213-90.605,23.75l-3.805,2.142l-0.04,4.367c-0.289,31.73,7.666,63.186,23.006,90.966
	c15.807,28.625,39.124,52.594,67.429,69.316c28.354,16.75,60.66,25.604,93.42,25.606c0.004,0,0.003,0,0.007,0
	c31.574,0,62.809-8.168,90.347-23.615c49.339-9.937,95.617-32.396,133.947-65.042c40.027-34.092,70.308-78.522,87.571-128.488
	C512.997,244.39,516.6,190.742,506.154,139.213z M327.126,294.646l-95.568-115.77c10.014-22.732,22.942-43.821,38.273-62.841
	l83.875,101.676L327.126,294.646z M436.629,23.924c17.187,21.866,30.823,45.935,40.736,71.308l-70.727,15.5L436.629,23.924z
	 M392.367,105.802l-46.075-55.852c23.46-13.843,49.045-24.362,76.065-30.955L392.367,105.802z M400.86,127.455l81.653-17.896
	c7.426,22.518,11.997,45.897,13.594,69.543l-122.356,26.817L400.86,127.455z M333.398,58.043l53.193,64.482l-27.107,78.464
	l-79.709-96.624C295.627,86.747,313.655,71.175,333.398,58.043z M223.194,200.199c0.625-1.809,1.274-3.605,1.935-5.396
	l96.223,116.561l-28.07,81.249l-85.493-103.637C208.126,258.901,213.294,228.857,223.194,200.199z M237.506,452.759l-0.957-64.631
	c0.283,0.441,0.571,0.879,0.849,1.323c0.451,0.716,0.892,1.438,1.332,2.16c0.364,0.599,0.73,1.197,1.086,1.801
	c0.441,0.745,0.871,1.495,1.3,2.246c0.337,0.59,0.673,1.181,1.003,1.774c0.428,0.772,0.846,1.549,1.262,2.327
	c0.312,0.584,0.623,1.168,0.928,1.754c0.415,0.798,0.819,1.601,1.221,2.407c0.287,0.575,0.572,1.15,0.853,1.728
	c0.4,0.826,0.791,1.657,1.178,2.489c0.263,0.566,0.523,1.132,0.779,1.701c0.384,0.853,0.76,1.708,1.129,2.568
	c0.24,0.557,0.477,1.115,0.711,1.675c0.367,0.88,0.727,1.762,1.079,2.648c0.217,0.547,0.431,1.093,0.643,1.642
	c0.349,0.906,0.691,1.815,1.025,2.728c0.196,0.535,0.389,1.073,0.579,1.611c0.33,0.932,0.653,1.866,0.966,2.804
	c0.176,0.526,0.348,1.055,0.519,1.584c0.308,0.954,0.611,1.911,0.902,2.872c0.158,0.52,0.311,1.042,0.464,1.564
	c0.286,0.975,0.566,1.953,0.834,2.935c0.14,0.512,0.275,1.028,0.411,1.542c0.262,0.995,0.518,1.994,0.763,2.995
	c0.124,0.507,0.242,1.017,0.36,1.526c0.237,1.013,0.469,2.027,0.687,3.046c0.109,0.506,0.21,1.016,0.315,1.523
	c0.21,1.025,0.416,2.05,0.607,3.081c0.095,0.51,0.182,1.023,0.272,1.534c0.182,1.032,0.36,2.064,0.523,3.101
	c0.082,0.52,0.155,1.043,0.232,1.565c0.152,1.03,0.302,2.06,0.435,3.095c0.07,0.544,0.131,1.09,0.195,1.636
	c0.121,1.016,0.241,2.03,0.344,3.05c0.058,0.58,0.106,1.163,0.159,1.743c0.09,0.988,0.179,1.976,0.253,2.968
	c0.02,0.277,0.033,0.556,0.052,0.832L237.506,452.759z M130.68,389.652l-1.118-75.454c12.694,2.719,25.07,6.902,36.872,12.483
	l1.227,84.818L130.68,389.652z M54.705,362.305L23.259,379.03c-4.134-12.823-6.753-26.199-7.721-39.862L54.705,362.305z
	 M23.21,326.164c12.342-5.708,25.329-9.907,38.646-12.519l0.527,35.661L23.21,326.164z M69.937,371.303l37.831,22.349
	l-60.827,32.351c-7.306-10.185-13.473-21.156-18.374-32.699L69.937,371.303z M214.594,456.759l-67.012,35.641
	c-16.762-3.716-32.955-9.988-47.978-18.66l75.607-40.246L214.594,456.759z M275.078,445.304c-0.033-0.178-0.068-0.356-0.103-0.533
	c-0.267-1.386-0.552-2.768-0.849-4.148c-0.045-0.211-0.086-0.424-0.131-0.635c-0.349-1.589-0.721-3.173-1.111-4.753
	c-0.121-0.489-0.254-0.976-0.378-1.464c-0.279-1.091-0.561-2.181-0.86-3.267c-0.165-0.601-0.341-1.199-0.512-1.799
	c-0.278-0.971-0.558-1.942-0.852-2.908c-0.192-0.634-0.393-1.266-0.592-1.898c-0.293-0.93-0.592-1.858-0.899-2.783
	c-0.213-0.64-0.43-1.279-0.649-1.917c-0.317-0.92-0.642-1.836-0.974-2.75c-0.226-0.625-0.453-1.25-0.686-1.873
	c-0.351-0.939-0.716-1.872-1.082-2.805c-0.23-0.586-0.458-1.174-0.694-1.757c-0.414-1.019-0.841-2.031-1.273-3.042
	c-0.207-0.486-0.408-0.975-0.619-1.46c-0.651-1.491-1.319-2.973-2.01-4.445c-0.731-1.558-1.486-3.105-2.262-4.641
	c-0.252-0.499-0.519-0.99-0.776-1.488c-0.533-1.032-1.064-2.065-1.616-3.087c-0.32-0.592-0.656-1.174-0.982-1.761
	c-0.509-0.918-1.016-1.838-1.541-2.747c-0.358-0.62-0.733-1.231-1.098-1.847c-0.513-0.865-1.023-1.731-1.551-2.588
	c-0.391-0.634-0.796-1.258-1.194-1.887c-0.522-0.825-1.043-1.654-1.578-2.471c-0.419-0.638-0.851-1.267-1.276-1.9
	c-0.535-0.795-1.069-1.592-1.616-2.379c-0.443-0.636-0.898-1.263-1.349-1.893c-0.552-0.771-1.101-1.542-1.664-2.304
	c-0.466-0.63-0.942-1.252-1.415-1.876c-0.567-0.748-1.133-1.496-1.712-2.234c-0.488-0.623-0.985-1.238-1.481-1.855
	c-0.583-0.725-1.166-1.449-1.758-2.166c-0.509-0.615-1.028-1.223-1.546-1.831c-0.597-0.702-1.196-1.403-1.803-2.096
	c-0.53-0.605-1.069-1.203-1.607-1.802c-0.613-0.681-1.229-1.361-1.852-2.033c-0.549-0.592-1.104-1.177-1.661-1.76
	c-0.63-0.661-1.263-1.321-1.902-1.973c-0.569-0.579-1.141-1.152-1.717-1.723c-0.644-0.639-1.291-1.274-1.945-1.903
	c-0.588-0.567-1.181-1.128-1.776-1.686c-0.658-0.618-1.321-1.23-1.988-1.838c-0.605-0.551-1.213-1.097-1.826-1.64
	c-0.675-0.598-1.356-1.191-2.039-1.779c-0.62-0.532-1.242-1.062-1.868-1.585c-0.308-0.258-0.609-0.523-0.918-0.779
	c-1.306-7.899-2.259-15.848-2.876-23.82l78.899,95.645L275.078,445.304z M199.808,347.484c1.254,1.001,2.492,2.018,3.713,3.05
	c0.409,0.345,0.804,0.701,1.208,1.049c0.805,0.693,1.613,1.385,2.404,2.092c0.473,0.423,0.932,0.857,1.399,1.283
	c0.707,0.646,1.417,1.288,2.111,1.945c0.495,0.468,0.977,0.948,1.466,1.421c0.648,0.627,1.3,1.251,1.937,1.888
	c0.506,0.506,0.999,1.024,1.499,1.536c0.602,0.617,1.209,1.232,1.801,1.857c0.506,0.535,0.999,1.081,1.498,1.622
	c0.567,0.616,1.138,1.228,1.695,1.851c0.206,0.23,0.406,0.467,0.611,0.699l1.124,75.985l-39.383-23.266l-1.239-85.64
	C187.939,338.655,194.045,342.884,199.808,347.484z M114.426,311.674l1.021,68.978l-37.831-22.349l-0.696-46.919
	c5.817-0.607,11.669-0.933,17.535-0.933C101.147,310.453,107.812,310.879,114.426,311.674z M56.439,438.052L123,402.651
	l36.98,21.846l-74.877,39.857C74.486,456.666,64.884,447.824,56.439,438.052z M183.864,496.404c-3.666,0-7.323-0.126-10.971-0.365
	l56.934-30.281l25.284,14.936c-22.269,10.3-46.64,15.711-71.24,15.711C183.868,496.404,183.865,496.404,183.864,496.404z
	 M282.3,470.632l19.473-56.367l120.819-26.479C385.446,428.077,336.79,457.337,282.3,470.632z M438.589,368.824l-131.038,28.719
	l28.07-81.248l147.654-32.308c-0.586,1.817-1.185,3.63-1.809,5.439C471.451,318.413,456.85,345.141,438.589,368.824z
	 M488.047,267.488l-146.651,32.089l26.579-76.935l128.751-28.219C497.048,218.85,494.2,243.422,488.047,267.488z"/>
<rect x="102.847" y="123.491" transform="matrix(-0.8731 -0.4875 0.4875 -0.8731 176.6501 308.0565)" width="51.134" height="15.097"/>
<rect x="158.287" y="71.872" transform="matrix(-0.2727 -0.9621 0.9621 -0.2727 157.5804 277.9655)" width="51.134" height="15.098"/>
<rect x="106.024" y="179.765" transform="matrix(-0.2727 -0.9621 0.9621 -0.2727 -53.0056 370.5944)" width="15.098" height="51.135"/>
<g>
</g>
<g>
</g>
<g>
</g>
<g>
</g>
<g>
</g>
<g>
</g>
<g>
</g>
<g>
</g>
<g>
</g>
<g>
</g>
<g>
</g>
<g>
</g>
<g>
</g>
<g>
</g>
<g>
</g>
</svg>
