<?xml version="1.0" encoding="iso-8859-1"?>
<!-- Generator: Adobe Illustrator 19.0.0, SVG Export Plug-In . SVG Version: 6.00 Build 0)  -->
<svg version="1.1" id="Layer_1" xmlns="http://www.w3.org/2000/svg" xmlns:xlink="http://www.w3.org/1999/xlink" x="0px" y="0px"
	 viewBox="0 0 512 512" style="enable-background:new 0 0 512 512;" xml:space="preserve">
<path style="fill:#007871;" d="M481.176,103.426c-19.6-34.405-47.641-63.184-81.092-83.227c-5.574-3.34-12.536-3.34-18.109,0
	c-33.45,20.044-61.49,48.823-81.091,83.227c-20.165,35.397-30.824,75.924-30.824,117.201s10.659,81.804,30.824,117.201
	c19.6,34.403,47.64,63.182,81.091,83.226c2.788,1.67,5.92,2.505,9.055,2.505c3.133,0,6.268-0.835,9.055-2.505
	c33.45-20.044,61.491-48.823,81.092-83.226C501.341,302.431,512,261.904,512,220.627S501.341,138.822,481.176,103.426z"/>
<path style="fill:#A2CE86;" d="M381.975,20.199c-33.45,20.044-61.49,48.823-81.091,83.227
	c-20.165,35.397-30.824,75.924-30.824,117.201s10.659,81.804,30.824,117.201c19.6,34.403,47.64,63.182,81.091,83.226
	c2.788,1.67,5.92,2.505,9.055,2.505c0.129,0,0.257-0.011,0.386-0.013V17.707C388.154,17.635,384.876,18.461,381.975,20.199z"/>
<path style="fill:#489B6D;" d="M338.873,95.258c-32.206-23.035-69.722-37.426-108.491-41.62c-6.46-0.699-12.782,2.216-16.445,7.583
	c-21.983,32.21-35.395,70.086-38.786,109.536c-3.489,40.588,3.803,81.855,21.088,119.337s43.936,69.823,77.07,93.522
	c32.206,23.034,69.72,37.426,108.49,41.62c3.231,0.349,6.425-0.204,9.272-1.517c2.846-1.312,5.342-3.382,7.173-6.066
	c21.983-32.21,35.396-70.086,38.787-109.536c3.488-40.588-3.803-81.855-21.088-119.337
	C398.658,151.296,372.007,118.957,338.873,95.258z"/>
<path style="fill:#A2CE86;" d="M213.936,61.221c-21.983,32.21-35.395,70.086-38.786,109.536
	c-3.489,40.588,3.803,81.855,21.088,119.337c17.285,37.483,43.936,69.823,77.07,93.522c32.206,23.034,69.72,37.426,108.49,41.62
	c3.231,0.349,6.425-0.204,9.272-1.517c0.117-0.054,0.229-0.117,0.345-0.174L221.467,55.005
	C218.474,56.306,215.843,58.427,213.936,61.221z"/>
<path style="fill:#F5CA47;" d="M206.228,147.431c-38.892-7.431-78.987-4.789-115.95,7.637c-6.159,2.07-10.679,7.366-11.758,13.774
	c-6.475,38.454-2.793,78.466,10.647,115.712c13.829,38.319,37.73,72.739,69.124,99.539c31.393,26.8,69.137,45.006,109.15,52.653
	c38.892,7.431,78.985,4.79,115.949-7.636c3.08-1.036,5.749-2.876,7.784-5.26c2.034-2.383,3.434-5.31,3.974-8.513
	c6.475-38.454,2.793-78.467-10.646-115.712c-13.829-38.319-37.731-72.739-69.124-99.539S246.241,155.077,206.228,147.431z"/>
<path style="fill:#F7F4A3;" d="M78.52,168.841c-6.475,38.454-2.793,78.466,10.647,115.712c13.829,38.319,37.73,72.739,69.124,99.539
	c31.393,26.8,69.137,45.006,109.15,52.653c38.892,7.431,78.985,4.79,115.949-7.636c3.08-1.036,5.749-2.876,7.784-5.26
	c0.083-0.099,0.16-0.202,0.241-0.302L82.755,160.044C80.582,162.478,79.081,165.506,78.52,168.841z"/>
<path style="fill:#E56C1E;" d="M107.622,250.356c-38.43,9.539-73.733,28.727-102.096,55.49c-4.726,4.459-6.613,11.16-4.91,17.431
	c10.224,37.632,30.322,72.424,58.124,100.618c28.604,29.006,64.723,50.255,104.454,61.444c39.731,11.191,81.63,11.919,121.168,2.106
	c38.429-9.539,73.732-28.726,102.094-55.49c2.363-2.231,4.017-5.019,4.866-8.037c0.849-3.016,0.896-6.26,0.043-9.394
	c-10.224-37.632-30.322-72.425-58.123-100.619c-28.604-29.006-64.723-50.254-104.454-61.444S147.159,240.544,107.622,250.356z"/>
<path style="fill:#F2BA57;" d="M0.616,323.278c10.224,37.632,30.322,72.424,58.124,100.618
	c28.604,29.006,64.723,50.254,104.454,61.444c39.731,11.191,81.63,11.919,121.168,2.106c38.429-9.539,73.732-28.726,102.094-55.49
	c2.363-2.231,4.017-5.019,4.866-8.037c0.035-0.124,0.06-0.25,0.093-0.376L0.777,313.515C-0.175,316.636-0.27,320.014,0.616,323.278z
	"/>
<g>
</g>
<g>
</g>
<g>
</g>
<g>
</g>
<g>
</g>
<g>
</g>
<g>
</g>
<g>
</g>
<g>
</g>
<g>
</g>
<g>
</g>
<g>
</g>
<g>
</g>
<g>
</g>
<g>
</g>
</svg>
