<?xml version="1.0" encoding="iso-8859-1"?>
<!-- Generator: Adobe Illustrator 19.0.0, SVG Export Plug-In . SVG Version: 6.00 Build 0)  -->
<svg version="1.1" id="Layer_1" xmlns="http://www.w3.org/2000/svg" xmlns:xlink="http://www.w3.org/1999/xlink" x="0px" y="0px"
	 viewBox="0 0 512 512" style="enable-background:new 0 0 512 512;" xml:space="preserve">
<path style="fill:#7E2D25;" d="M384.467,75.796c28.332,0,51.294,22.976,51.294,51.308s-22.962,51.294-51.294,51.294
	s-51.308-22.962-51.308-51.294S356.135,75.796,384.467,75.796z"/>
<path style="fill:#F14336;" d="M283.35,68.437c20.237-34.805,57.944-58.217,101.116-58.217c64.554,0,116.883,52.33,116.883,116.883
	c0,16.19-3.298,31.602-9.239,45.625c-5.955,14.023-14.568,26.642-25.197,37.217c-8.858,9.417-16.803,19.365-23.944,29.531
	c-46.783,66.652-58.503,142.748-58.503,142.748s-12.728-82.624-64.608-151.102c-5.506-7.25-11.447-14.35-17.852-21.177h0.014
	c-7.141-7.086-13.355-15.099-18.465-23.848c-10.153-17.321-15.971-37.476-15.971-58.994
	C267.583,105.722,273.321,85.676,283.35,68.437z M435.761,127.104c0-28.332-22.962-51.308-51.294-51.308
	s-51.308,22.976-51.308,51.308s22.976,51.294,51.308,51.294C412.798,178.398,435.761,155.436,435.761,127.104z"/>
<path style="fill:#CCCCCC;" d="M443.992,240.199v208.965l-65.671-64.785l-5.56-5.492l-100.68-99.345l47.778-48.419
	c51.88,68.478,64.608,151.102,64.608,151.102s11.72-76.096,58.503-142.748L443.992,240.199z"/>
<path style="fill:#F2F2F2;" d="M443.992,449.163v13.491c0,20.319-15.495,37.026-35.323,38.934L228.459,323.749l43.622-44.208
	l100.68,99.345l5.56,5.492L443.992,449.163z"/>
<path style="fill:#518EF8;" d="M228.459,323.749l180.211,177.839c-1.254,0.123-2.521,0.191-3.802,0.191H52.786L228.459,323.749z"/>
<path style="fill:#FFD837;" d="M319.859,231.123l-47.778,48.419l-43.622,44.208L52.786,501.779h-3.012
	c-21.6,0-39.125-17.525-39.125-39.125l272.905-276.557c5.11,8.749,11.324,16.762,18.465,23.848h-0.014
	C308.411,216.773,314.353,223.873,319.859,231.123z"/>
<path style="fill:#28B446;" d="M283.555,186.098L10.65,462.655V107.562c0-21.613,17.525-39.125,39.125-39.125H283.35
	c-10.03,17.239-15.767,37.285-15.767,58.667C267.583,148.622,273.402,168.777,283.555,186.098z"/>
<path style="fill:#FFFFFF;" d="M112.856,222.769c-34.378,0-62.346-27.968-62.346-62.346s27.968-62.346,62.346-62.346
	c16.642,0,32.295,6.488,44.077,18.27c3.992,3.992,3.992,10.462,0,14.453c-3.993,3.992-10.463,3.992-14.455,0
	c-7.92-7.92-18.441-12.282-29.622-12.282c-23.107,0-41.905,18.798-41.905,41.905s18.798,41.905,41.905,41.905
	c19.581,0,36.071-13.501,40.644-31.684h-40.644c-5.646,0-10.221-4.576-10.221-10.221c0-5.645,4.575-10.221,10.221-10.221h52.125
	c5.646,0,10.221,4.576,10.221,10.221C175.202,194.801,147.235,222.769,112.856,222.769z"/>
<g>
	<path style="fill:#333333;" d="M384.467,65.576c-33.927,0-61.527,27.601-61.527,61.528c0,33.919,27.601,61.515,61.527,61.515
		c33.92,0,61.516-27.596,61.516-61.515C445.981,93.177,418.386,65.576,384.467,65.576z M384.467,168.177
		c-22.654,0-41.086-18.426-41.086-41.073c0-22.656,18.431-41.087,41.086-41.087c22.648,0,41.075,18.431,41.075,41.087
		C425.54,149.752,407.114,168.177,384.467,168.177z"/>
	<path style="fill:#333333;" d="M384.467,0c-43.124,0-83.505,22.168-106.813,58.217H49.775c-27.209,0-49.345,22.137-49.345,49.345
		v355.093C0.429,489.863,22.566,512,49.775,512h355.093c1.56,0,3.174-0.08,4.782-0.238c25.406-2.445,44.563-23.557,44.563-49.107
		V241.333c6.359-8.718,13.081-16.864,20.031-24.264c11.672-11.642,20.849-25.215,27.277-40.351
		c6.669-15.737,10.05-32.429,10.05-49.612C511.571,57.019,454.552,0,384.467,0z M49.775,78.658h217.164
		c-6.292,15.281-9.576,31.754-9.576,48.446c0,19.933,4.686,39.553,13.595,57.207L20.871,437.745V107.562
		C20.871,91.625,33.837,78.658,49.775,78.658z M21.165,466.551l260.802-264.292c3.798,5.177,7.978,10.068,12.522,14.613
		c0.02,0.023,0.041,0.045,0.063,0.068c3.986,4.248,7.893,8.756,11.694,13.429L48.573,491.497
		C34.505,490.916,23.025,480.256,21.165,466.551z M318.657,246.894c28.953,41.868,43.897,87.729,50.749,114.319l-82.87-81.767
		L318.657,246.894z M228.554,338.203l155.402,153.356H77.225L228.554,338.203z M412.102,490.616L242.911,323.653l29.265-29.658
		L433.77,453.437v9.218C433.771,476.09,424.723,487.402,412.102,490.616z M394.116,385.592c0.202-0.578,0.354-1.182,0.451-1.806
		c0.098-0.631,8.783-54.634,39.205-110.12V424.72L394.116,385.592z M482.702,168.733c-5.41,12.739-13.148,24.167-22.998,33.965
		c-0.082,0.079-0.159,0.161-0.237,0.243c-8.713,9.263-17.078,19.579-24.861,30.659c-0.001,0.001-0.003,0.001-0.003,0.003
		c-25.992,37.031-41.413,76.508-50.136,105.243c-9.408-30.999-26.609-74.491-56.47-113.906
		c-5.796-7.631-11.924-14.913-18.219-21.647c-0.177-0.207-0.365-0.409-0.56-0.602c-6.53-6.481-12.195-13.798-16.846-21.762
		c-9.531-16.259-14.568-34.872-14.568-53.825c0-18.848,4.973-37.357,14.382-53.529c19.054-32.774,54.413-53.134,92.279-53.134
		c58.814,0,106.664,47.849,106.664,106.663C491.129,141.531,488.294,155.541,482.702,168.733z"/>
</g>
<g>
</g>
<g>
</g>
<g>
</g>
<g>
</g>
<g>
</g>
<g>
</g>
<g>
</g>
<g>
</g>
<g>
</g>
<g>
</g>
<g>
</g>
<g>
</g>
<g>
</g>
<g>
</g>
<g>
</g>
</svg>
