<?xml version="1.0" encoding="iso-8859-1"?>
<!-- Generator: Adobe Illustrator 19.0.0, SVG Export Plug-In . SVG Version: 6.00 Build 0)  -->
<svg version="1.1" id="Capa_1" xmlns="http://www.w3.org/2000/svg" xmlns:xlink="http://www.w3.org/1999/xlink" x="0px" y="0px"
	 viewBox="0 0 512 512" style="enable-background:new 0 0 512 512;" xml:space="preserve">
<g transform="matrix(1.25 0 0 -1.25 0 45)">
	<g>
		<g>
			<g>
				<path style="fill:#88C9F9;" d="M409.6-168.8c0-113.1-91.7-204.8-204.8-204.8S0-281.9,0-168.8S91.7,36,204.8,36
					S409.6-55.7,409.6-168.8"/>
			</g>
		</g>
	</g>
	<g>
		<path style="fill:#5C913B;" d="M318.6-16.9c2.8,3.3-17.1,4-24.9,5.2c-7.8,1.3-27.7,2.1-35.6,7c-7.8,4.8-37.7,1.2-45.5-2.7
			c-7.8-3.9-12.8,0.3-16.3,5.7C192.7,3.7,177.8,1,173.5,4s-8.5-5-14.2-7.1s-7.8-2.8-14.9,1.4c-7.1,4.3,2.1,9.2-7.8,12.8
			c-6.7,2.4-14.7,0.9-27.3,1.2C44.3-22,0-90.2,0-168.8c0-39,10.9-75.4,29.8-106.4c3.7,5.9,2.8,14,2.2,22.5
			c-0.7,11.4-0.7,13.5-0.7,27s6.4,11.4,12.8,17.8s5,7.1,15.6,14.1c10.7,7,5,15,4.3,19.3c-0.7,4.3-7.1,0.7-17.8-0.7
			c-10.7-1.4-7.1,3.5-13.5,6.4c-6.4,2.8-9.3,7.1-13.5,19.9c-4.3,12.8-5,16.3-3.5,27c1.4,10.7,6.4,0.7,7.1-10.7
			c0.7-11.4,10.7-7.1,10.7-14.2c0-7.1,14.2-14.9,17.8-17.1c3.6-2.1,13.5,10.7,17.1,14.2c3.5,3.6,7.8,8.5,9.2,11.4
			c1.4,2.8,19.2,5,22.8,5c3.5,0,12.1-10.7,12.1-15.6c0-5,4.3-18.5,7.8-26.3c3.6-7.8,11.4-9.3,18.5-14.9c7.1-5.7,10.7-0.7,10.7-0.7
			s-2.8,12.1-2.8,22s8.5,18.5,8.5,18.5s13.5-10,14.2-12.8s11.4-12.8,12.1-17.8c0.7-5,6.4-11.4,16.9-12.8s3,12.1,6.6,21.3
			c3.5,9.2,8.5,10.7,14.9,12.1s11.4,7.1,15.6,12.8c4.3,5.7,12.1,13.5,11.4,19.9c-0.7,6.4-2.8,10.7-5.7,18.5
			c-2.8,7.8,8.5,10.7,13.5,19.9s0,0,11.4,2.8s6.4,2.8,8.5,7.1s3.6,8.5,1.4,16.4c-2.1,7.8-9.9,0-17.8,0c-7.8,0,2.8,10.7,3.6,19.2
			c0.7,8.5,10.7,6.4,17.8,7.1c7.1,0.7,9.2-9.2,11.4-11.4c2.1-2.1,24.2,14.2,29.9,22C326.4-18,315.7-20.2,318.6-16.9z"/>
		<path style="fill:#5C913B;" d="M181.3-206.5c0-7.8-5.7-16.3,0-24.2c5.7-7.8,10.7-7.8,15.6-8.5c5-0.7,19.2,0,7.8,9.2
			c-11.4,9.3-17.8,2.1-16.4,12.8C189.9-206.5,181.3-206.5,181.3-206.5z"/>
		<path style="fill:#5C913B;" d="M254.6-131.8c5-0.7,26.3,2.1,14.9,11.4c-11.4,9.3-2.8,6.4-1.4,17.1c1.4,10.7-7.1,10.7-7.1,10.7
			c0-7.8-5.7-16.3,0-24.2C266.7-124.7,249.6-131.1,254.6-131.8z"/>
		<path style="fill:#5C913B;" d="M225.4-231.4c7.1-7.8,4.3,0,13.6,3.6c9.2,3.5-7.8,11.4-13.5,15.6c-5.7,4.3-11.3,4.4-16.3-5
			C203.5-227.8,218.3-223.5,225.4-231.4z"/>
		<path style="fill:#5C913B;" d="M253.9-239.4c2.8-10.9,13.5-2.7,23.5-8.3c10-5.7,10.7,2.1,19.9-0.7c9.2-2.8,12.8-9.3,21.7-8.5
			c8.9,0.7-6.7,7.1-10.3,11.4c-3.5,4.3-11.4,6.4-19.9,6.2c-8.5-0.2-7.8,9.4-16.4,8.7c-8.5-0.7-14.6,5.7-18.5,7.7
			C245.5-218.6,251-228.5,253.9-239.4z"/>
		<path style="fill:#5C913B;" d="M209.1-309.6c5.7,4.3,9.4,5.3,15.6-0.4c6.2-5.7,14.4-11,14.4-17.4c0-6.4,22.5-17.1,31.1-12.8
			c8.5,4.3,13.5,12.8,21.3,19.9c7.8,7.1,5,20.6,7.1,29.2c2.1,8.5-5,7.1-8.5,14.2c-3.6,7.1-13.9,13.5-18.2,17.1
			c-4.3,3.6-10.9,4.8-16.6,2.7c-5.7-2.1-9.2,0-12.1,5.6c-2.8,5.6-7.8,3.7-12.1,3s-21.3-7.8-31.3-12.8s-14.5-9.3-21-15.6
			c-10.2-9.9-4.6-3.5,0-10c4.6-6.4-5-26.3-5.7-37.7s18.2,3.5,25.3,5C205.5-318.1,203.4-313.9,209.1-309.6z"/>
	</g>
</g>
<g>
</g>
<g>
</g>
<g>
</g>
<g>
</g>
<g>
</g>
<g>
</g>
<g>
</g>
<g>
</g>
<g>
</g>
<g>
</g>
<g>
</g>
<g>
</g>
<g>
</g>
<g>
</g>
<g>
</g>
</svg>
