<?xml version="1.0" encoding="iso-8859-1"?>
<!-- Generator: Adobe Illustrator 19.0.0, SVG Export Plug-In . SVG Version: 6.00 Build 0)  -->
<svg version="1.1" id="Capa_1" xmlns="http://www.w3.org/2000/svg" xmlns:xlink="http://www.w3.org/1999/xlink" x="0px" y="0px"
	 viewBox="0 0 513.067 513.067" style="enable-background:new 0 0 513.067 513.067;" xml:space="preserve">
<path style="fill:#66C6B9;" d="M435.664,257.067c-55.467,66.133-138.667,108.8-234.667,109.867
	C179.664,167.467,318.331,2.133,510.331,0C520.997,99.2,491.131,190.933,435.664,257.067z"/>
<g>
	<path style="fill:#4ABAA5;" d="M144.464,512h-34.133c0-1.067,1.067-2.133,1.067-4.267c10.667-28.8,24.533-61.867,44.8-96
		c9.6-16,21.333-34.133,33.067-49.067c12.8-16,25.6-30.933,38.4-45.867c102.4-122.667,214.4-234.667,214.4-234.667
		S336.464,201.6,242.598,329.6c-11.733,16-23.467,32-35.2,48c-11.733,16-20.267,32-28.8,48
		C163.664,455.467,152.997,485.333,144.464,512z"/>
	<path style="fill:#4ABAA5;" d="M354.598,89.6c0,0-1.067,7.467-2.133,18.133c-1.067,10.667-4.267,25.6-6.4,39.467
		c-3.2,13.867-5.333,28.8-8.533,39.467c-2.133,10.667-4.267,18.133-4.267,18.133s1.067-7.467,2.133-18.133
		c1.067-10.667,4.267-25.6,6.4-39.467c3.2-13.867,5.333-28.8,8.533-39.467C352.464,97.067,354.598,89.6,354.598,89.6z"/>
	<path style="fill:#4ABAA5;" d="M290.598,256c0,0,6.4-3.2,17.067-7.467c10.667-4.267,24.533-8.533,38.4-12.8
		c13.867-4.267,28.8-8.533,39.467-10.667c10.667-2.133,18.133-4.267,18.133-4.267s-6.4,3.2-17.067,7.467
		c-10.667,4.267-24.533,8.533-38.4,12.8c-13.867,4.267-28.8,8.533-39.467,10.667C298.064,253.867,290.598,256,290.598,256z"/>
	<path style="fill:#4ABAA5;" d="M391.931,138.667c0,0,4.267-1.067,11.733-2.133c7.467-1.067,17.067-2.133,26.667-3.2
		c9.6,0,19.2-1.067,26.667-1.067s11.733,1.067,11.733,1.067s-4.267,1.067-11.733,2.133c-7.467,1.067-17.067,2.133-26.667,3.2
		c-9.6,0-19.2,1.067-26.667,1.067C396.197,138.667,391.931,138.667,391.931,138.667z"/>
	<path style="fill:#4ABAA5;" d="M271.397,278.4c0,0-1.067-5.333-2.133-13.867c-1.067-8.533-2.133-20.267-3.2-30.933
		c0-11.733-1.067-22.4-1.067-32c0-8.533,1.067-13.867,1.067-13.867s1.067,5.333,2.133,13.867c1.067,8.533,2.133,20.267,3.2,30.933
		c0,11.733,1.067,22.4,1.067,32C271.397,273.067,271.397,278.4,271.397,278.4z"/>
</g>
<path style="fill:#66C6B9;" d="M18.597,284.8c22.4,52.267,67.2,94.933,126.933,115.2c49.067-120.533-7.467-250.667-126.933-291.2
	C-5.936,169.6-4.869,232.533,18.597,284.8z"/>
<g>
	<path style="fill:#4ABAA5;" d="M45.264,173.867c0,0,34.133,65.067,65.067,133.333c7.467,17.067,14.933,34.133,22.4,50.133
		c7.467,16,12.8,30.933,19.2,43.733c11.733,26.667,16,44.8,16,44.8l-20.267,4.267c0,0-1.067-18.133-8.533-44.8
		c-2.133-6.4-4.267-13.867-7.467-21.333s-5.333-14.933-8.533-23.467c-6.4-16-12.8-33.067-20.267-51.2
		C77.264,241.067,45.264,173.867,45.264,173.867z"/>
	<path style="fill:#4ABAA5;" d="M99.664,196.267c0,0,0,5.333,0,11.733c0,7.467-1.067,17.067-1.067,26.667
		c-1.067,9.6-2.133,19.2-3.2,25.6C94.331,267.733,93.264,272,93.264,272s0-5.333,0-11.733c0-7.467,1.067-17.067,1.067-26.667
		c1.067-9.6,2.133-19.2,3.2-25.6C98.597,201.6,99.664,196.267,99.664,196.267z"/>
	<path style="fill:#4ABAA5;" d="M109.264,312.533c0,0-4.267-2.133-10.667-5.333c-6.4-3.2-14.933-8.533-22.4-14.933
		c-8.533-5.333-16-11.733-21.333-16s-9.6-8.533-9.6-8.533s4.267,2.133,10.667,5.333c6.4,4.267,13.867,9.6,22.4,14.933
		c8.533,5.333,16,11.733,21.333,16C106.064,309.333,109.264,312.533,109.264,312.533z"/>
	<path style="fill:#4ABAA5;" d="M67.664,219.733c0,0-3.2,0-7.467-1.067s-10.667-3.2-17.067-5.333c-6.4-2.133-11.733-5.333-16-7.467
		c-4.267-2.133-7.467-4.267-7.467-4.267s3.2,0,7.467,1.067s10.667,3.2,17.067,5.333c6.4,2.133,11.733,5.333,16,7.467
		S67.664,219.733,67.664,219.733z"/>
	<path style="fill:#4ABAA5;" d="M116.731,330.667c0,0,1.067-4.267,2.133-9.6c1.067-5.333,3.2-12.8,5.333-19.2
		c2.133-7.467,5.333-13.867,7.467-19.2c2.133-5.333,4.267-8.533,4.267-8.533s-1.067,4.267-2.133,9.6s-3.2,12.8-5.333,19.2
		c-2.133,7.467-5.333,13.867-7.467,19.2C118.864,327.467,116.731,330.667,116.731,330.667z"/>
</g>
<g>
	<path style="fill:#F05540;" d="M374.864,357.333c14.933-3.2,29.867,6.4,32,21.333c3.2,14.933-6.4,29.867-21.333,32
		c-14.933,3.2-29.867-6.4-32-21.333C350.331,374.4,359.931,360.533,374.864,357.333z"/>
	<path style="fill:#F05540;" d="M294.864,429.867c3.2,6.4,7.467,11.733,11.733,17.067l-11.733,34.133l29.867,19.2l26.667-23.467
		c6.4,2.133,12.8,3.2,20.267,4.267l16,32l35.2-7.467l2.133-36.267c6.4-3.2,11.733-7.467,17.067-11.733l34.133,11.733l19.2-29.867
		L471.931,412.8c2.133-6.4,3.2-12.8,4.267-20.267l32-16l-6.4-35.2l-36.267-2.133c-3.2-6.4-7.467-11.733-11.733-17.067L465.531,288
		l-29.867-19.2l-26.667,23.467c-6.4-2.133-12.8-3.2-20.267-4.267l-16-32l-35.2,7.467l-2.133,36.267
		c-6.4,3.2-11.733,7.467-17.067,11.733l-34.133-11.733l-19.2,29.867l23.467,26.667c-2.133,6.4-3.2,12.8-4.267,20.267l-32,16
		l7.467,35.2L294.864,429.867z M322.598,395.733c-6.4-32,13.867-62.933,45.867-69.333s62.933,13.867,69.333,45.867
		c6.4,32-13.867,62.933-45.867,69.333C359.931,448,328.997,427.733,322.598,395.733z"/>
</g>
<path style="fill:#FFD15C;" d="M151.931,392.533c3.2,3.2,6.4,5.333,10.667,7.467l1.067,22.4l21.333,4.267l9.6-20.267
	c4.267,0,8.533-1.067,12.8-2.133l17.067,14.933l18.133-12.8l-7.467-21.333c3.2-3.2,5.333-6.4,7.467-10.667l22.4-1.067L269.264,352
	l-20.267-9.6c0-4.267-1.067-8.533-2.133-12.8l14.933-17.067l-12.8-18.133l-21.333,7.467c-3.2-3.2-6.4-5.333-10.667-7.467
	l-1.067-22.4l-21.333-4.267l-9.6,20.267c-4.267,0-8.533,1.067-12.8,2.133L155.131,275.2L136.997,288l7.467,21.333
	c-3.2,3.2-5.333,6.4-7.467,10.667h-22.4l-4.267,21.333l20.267,9.6c0,4.267,1.067,8.533,2.133,12.8L117.797,380.8l12.8,18.133
	L151.931,392.533z M166.864,361.6c-8.533-12.8-5.333-29.867,7.467-38.4c12.8-8.533,29.867-5.333,38.4,7.467
	c8.533,12.8,5.333,29.867-7.467,38.4C192.464,377.6,175.397,374.4,166.864,361.6z"/>
<g>
</g>
<g>
</g>
<g>
</g>
<g>
</g>
<g>
</g>
<g>
</g>
<g>
</g>
<g>
</g>
<g>
</g>
<g>
</g>
<g>
</g>
<g>
</g>
<g>
</g>
<g>
</g>
<g>
</g>
</svg>
