<?xml version="1.0" encoding="UTF-8" standalone="no"?>
<!-- Created with Inkscape (http://www.inkscape.org/) -->

<svg
   xmlns:dc="http://purl.org/dc/elements/1.1/"
   xmlns:cc="http://creativecommons.org/ns#"
   xmlns:rdf="http://www.w3.org/1999/02/22-rdf-syntax-ns#"
   xmlns:svg="http://www.w3.org/2000/svg"
   xmlns="http://www.w3.org/2000/svg"
   xmlns:sodipodi="http://sodipodi.sourceforge.net/DTD/sodipodi-0.dtd"
   xmlns:inkscape="http://www.inkscape.org/namespaces/inkscape"
   width="210mm"
   height="297mm"
   viewBox="0 0 210 297"
   version="1.1"
   id="svg8"
   inkscape:version="0.92.2 (30a58d1, 2017-08-07)"
   sodipodi:docname="owl.svg">
  <defs
     id="defs2" />
  <sodipodi:namedview
     id="base"
     pagecolor="#ffffff"
     bordercolor="#666666"
     borderopacity="1.0"
     inkscape:pageopacity="0.0"
     inkscape:pageshadow="2"
     inkscape:zoom="0.7"
     inkscape:cx="321.5427"
     inkscape:cy="436.66577"
     inkscape:document-units="mm"
     inkscape:current-layer="g243"
     showgrid="false"
     inkscape:window-width="1861"
     inkscape:window-height="1056"
     inkscape:window-x="59"
     inkscape:window-y="24"
     inkscape:window-maximized="1" />
  <metadata
     id="metadata5">
    <rdf:RDF>
      <cc:Work
         rdf:about="">
        <dc:format>image/svg+xml</dc:format>
        <dc:type
           rdf:resource="http://purl.org/dc/dcmitype/StillImage" />
        <dc:title></dc:title>
      </cc:Work>
    </rdf:RDF>
  </metadata>
  <g
     inkscape:label="Layer 1"
     inkscape:groupmode="layer"
     id="layer1">
    <g
       id="g243"
       transform="matrix(0.26458333,0,0,0.26458333,7.207593,59.002101)">
      <g
         id="g311">
        <path
           style="fill:#814734"
           inkscape:connector-curvature="0"
           d="m 185.82,111.26 c 0,0 -15.725,21.984 5.591,63.403 11.307,21.97 61.852,79.015 61.852,79.015 l 6.99,6.69 c 0,0 26.655,-3.468 24.984,-10.354 C 246.426,90.074 185.82,111.264 185.82,111.264 Z"
           id="path12" />
        <ellipse
           style="fill:#d8bd8f"
           transform="matrix(0.8955,-0.4451,0.4451,0.8955,-158.26,140.4)"
           cx="219.78"
           cy="407.14001"
           rx="19.829"
           ry="29.334"
           id="ellipse14" />
        <path
           style="fill:#814734"
           inkscape:connector-curvature="0"
           d="m 253.09,407.14 c -37.924,7.844 -56.89,20.333 -57.252,37.43 -0.333,15.697 32.091,53.983 32.091,53.983 l 21.689,12.142 c 0,0 46.52,11.98 62.425,13.211 5.575,0.431 22.337,-1.211 22.337,-1.211 0,0 45.214,-11.875 43.357,-24.142 -3.709,-24.502 -37.537,-60.435 -36.32,-91.413 0.867,-22.065 -66.703,-4.473 -88.327,0 z"
           id="path16" />
        <path
           style="fill:#814734"
           inkscape:connector-curvature="0"
           d="m 258.93,362.2 c 0.008,-0.304 0.024,-0.6 0.04,-0.904 v -0.008 c 0.056,-1.191 0.176,-2.408 0.376,-3.64 -0.385,1.424 -0.864,3.64 -0.416,4.552 z m 45.456,-3.864 c 1.032,-1.032 -2.168,8.952 -3.056,9.904 2.239,-1.303 4.656,-11.936 3.056,-9.904 z m -3.857,10.353 c -0.912,1.752 -1.951,3.408 -3.072,4.928 -0.096,0.137 -0.143,0.216 -0.143,0.216 0,0 -0.01,0 -0.018,0.008 -0.68,0.232 -20.111,6.881 -36.455,-3.968 -0.24,-0.168 -1.408,-4.344 -1.92,-6.88 v -0.024 c 0,-0.224 0,-0.447 0.008,-0.672 0.08,0.112 0.16,0.216 0.248,0.32 -0.072,-0.104 -0.144,-0.216 -0.208,-0.32 v -0.008 c -0.016,-0.023 -0.032,-0.048 -0.04,-0.063 -0.072,-0.097 -0.12,-0.145 -0.16,-0.152 h -0.016 c -0.152,0.024 -0.048,0.832 0.168,1.952 v 0.024 c 0.424,2.184 1.313,5.536 1.729,6.688 0.088,0.231 0.151,0.376 0.191,0.399 16.344,11.185 35.775,4.328 36.455,4.089 0.008,-0.008 0.018,-0.008 0.018,-0.008 0,0 0.047,-0.081 0.143,-0.217 0.84,-1.176 1.633,-2.424 2.354,-3.735 0,-0.008 0.008,-0.016 0.016,-0.024 0.535,-0.968 1.039,-1.968 1.504,-3 -0.202,0.214 -0.497,0.334 -0.802,0.447 z M 258.93,362.2 c 0.008,-0.304 0.024,-0.6 0.04,-0.904 v -0.008 c 0.056,-1.191 0.176,-2.408 0.376,-3.64 -0.385,1.424 -0.864,3.64 -0.416,4.552 z m 121.08,-39.752 c -0.136,-0.023 -0.272,-0.04 -0.408,-0.048 0.16,0.017 0.32,0.04 0.488,0.063 -0.024,-0.007 -0.057,-0.015 -0.08,-0.015 z M 258.93,362.2 c 0.008,-0.304 0.024,-0.6 0.04,-0.904 v -0.008 c 0.056,-1.191 0.176,-2.408 0.376,-3.64 -0.385,1.424 -0.864,3.64 -0.416,4.552 z m 20.656,-11.935 c -2.049,0 -3.704,1.808 -3.704,4.031 0,2.232 1.655,4.04 3.704,4.04 2.056,0 3.711,-1.808 3.711,-4.04 0,-2.224 -1.655,-4.031 -3.711,-4.031 z m 11.264,-14.969 c -2.809,0 -5.08,2.648 -5.08,5.912 0,3.271 2.271,5.92 5.08,5.92 2.809,0 5.08,-2.648 5.08,-5.92 0,-3.264 -2.272,-5.912 -5.08,-5.912 z m 13.536,23.04 c 0.392,-2.271 0.575,-4.512 0.552,-6.68 -0.016,1.88 -0.2,3.823 -0.552,5.792 -0.063,0.368 -0.136,0.728 -0.216,1.096 -0.408,1.96 -0.992,3.944 -1.744,5.92 -0.336,0.889 -0.704,1.761 -1.096,2.601 -0.193,0.424 -0.4,0.84 -0.608,1.247 -0.063,0.129 -0.128,0.257 -0.192,0.377 -0.912,1.752 -1.951,3.408 -3.072,4.928 -0.096,0.137 -0.143,0.216 -0.143,0.216 0,0 -0.01,0 -0.018,0.008 -0.68,0.232 -20.111,6.881 -36.455,-3.968 -0.24,-0.168 -1.408,-4.344 -1.92,-6.88 v -0.024 c 0,-0.224 0,-0.447 0.008,-0.672 0.08,0.112 0.16,0.216 0.248,0.32 -0.072,-0.104 -0.144,-0.216 -0.208,-0.32 v -0.008 c -0.016,-0.023 -0.032,-0.048 -0.04,-0.063 -0.072,-0.097 -0.12,-0.145 -0.16,-0.152 h -0.016 c -0.152,0.024 -0.048,0.832 0.168,1.952 v 0.024 c 0.424,2.184 1.313,5.536 1.729,6.688 0.088,0.231 0.151,0.376 0.191,0.399 16.344,11.185 35.775,4.328 36.455,4.089 0.008,-0.008 0.018,-0.008 0.018,-0.008 0,0 0.047,-0.081 0.143,-0.217 0.84,-1.176 1.633,-2.424 2.354,-3.735 0,-0.008 0.008,-0.016 0.016,-0.024 0.535,-0.968 1.039,-1.968 1.504,-3 2.237,-1.305 4.654,-11.938 3.054,-9.906 z m 0,0 c 0.392,-2.271 0.575,-4.512 0.552,-6.68 -0.016,1.88 -0.2,3.823 -0.552,5.792 -0.063,0.368 -0.136,0.728 -0.216,1.096 -0.408,1.96 -0.992,3.944 -1.744,5.92 -0.336,0.889 -0.704,1.761 -1.096,2.601 -0.193,0.424 -0.4,0.84 -0.608,1.247 -0.063,0.129 -0.128,0.257 -0.192,0.377 -0.912,1.752 -1.951,3.408 -3.072,4.928 -0.096,0.137 -0.143,0.216 -0.143,0.216 0,0 -0.01,0 -0.018,0.008 -0.68,0.232 -20.111,6.881 -36.455,-3.968 -0.24,-0.168 -1.408,-4.344 -1.92,-6.88 v -0.024 c 0,-0.224 0,-0.447 0.008,-0.672 0.08,0.112 0.16,0.216 0.248,0.32 -0.072,-0.104 -0.144,-0.216 -0.208,-0.32 v -0.008 c -0.016,-0.023 -0.032,-0.048 -0.04,-0.063 -0.072,-0.097 -0.12,-0.145 -0.16,-0.152 h -0.016 c -0.152,0.024 -0.048,0.832 0.168,1.952 v 0.024 c 0.424,2.184 1.313,5.536 1.729,6.688 0.088,0.231 0.151,0.376 0.191,0.399 16.344,11.185 35.775,4.328 36.455,4.089 0.008,-0.008 0.018,-0.008 0.018,-0.008 0,0 0.047,-0.081 0.143,-0.217 0.84,-1.176 1.633,-2.424 2.354,-3.735 0,-0.008 0.008,-0.016 0.016,-0.024 0.535,-0.968 1.039,-1.968 1.504,-3 2.237,-1.305 4.654,-11.938 3.054,-9.906 z m -13.536,-23.04 c -2.809,0 -5.08,2.648 -5.08,5.912 0,3.271 2.271,5.92 5.08,5.92 2.809,0 5.08,-2.648 5.08,-5.92 0,-3.264 -2.272,-5.912 -5.08,-5.912 z m -11.264,14.969 c -2.049,0 -3.704,1.808 -3.704,4.031 0,2.232 1.655,4.04 3.704,4.04 2.056,0 3.711,-1.808 3.711,-4.04 0,-2.224 -1.655,-4.031 -3.711,-4.031 z M 258.93,362.2 c 0.008,-0.304 0.024,-0.6 0.04,-0.904 v -0.008 c 0.056,-1.191 0.176,-2.408 0.376,-3.64 -0.385,1.424 -0.864,3.64 -0.416,4.552 z m 139.34,-21.288 c -0.048,0.096 -0.088,0.192 -0.127,0.288 0.375,1.225 0.695,2.504 0.943,3.816 0.023,0.127 0.047,0.256 0.064,0.384 0.008,0.008 0.008,0.008 0.008,0.017 0.031,0.159 0.056,0.319 0.08,0.472 0.072,-0.168 0.136,-0.336 0.199,-0.513 0.385,-1.096 -0.704,-5.527 -1.167,-4.464 z m -18.264,-18.464 c -0.136,-0.023 -0.272,-0.04 -0.408,-0.048 0.16,0.017 0.32,0.04 0.488,0.063 -0.024,-0.007 -0.057,-0.015 -0.08,-0.015 z M 258.926,362.2 c 0.008,-0.304 0.024,-0.6 0.04,-0.904 v -0.008 c 0.056,-1.191 0.176,-2.408 0.376,-3.64 -0.385,1.424 -0.864,3.64 -0.416,4.552 z m 20.656,-11.935 c -2.049,0 -3.704,1.808 -3.704,4.031 0,2.232 1.655,4.04 3.704,4.04 2.056,0 3.711,-1.808 3.711,-4.04 0,-2.224 -1.655,-4.031 -3.711,-4.031 z m 11.264,-14.969 c -2.809,0 -5.08,2.648 -5.08,5.912 0,3.271 2.271,5.92 5.08,5.92 2.809,0 5.08,-2.648 5.08,-5.92 0,-3.264 -2.272,-5.912 -5.08,-5.912 z m 13.536,23.04 c 0.392,-2.271 0.575,-4.512 0.552,-6.68 -0.016,1.88 -0.2,3.823 -0.552,5.792 -0.063,0.368 -0.136,0.728 -0.216,1.096 -0.408,1.96 -0.992,3.944 -1.744,5.92 -0.336,0.889 -0.704,1.761 -1.096,2.601 -0.193,0.424 -0.4,0.84 -0.608,1.247 -0.063,0.129 -0.128,0.257 -0.192,0.377 -0.912,1.752 -1.951,3.408 -3.072,4.928 -0.096,0.137 -0.143,0.216 -0.143,0.216 0,0 -0.01,0 -0.018,0.008 -0.68,0.232 -20.111,6.881 -36.455,-3.968 -0.24,-0.168 -1.408,-4.344 -1.92,-6.88 v -0.024 c 0,-0.224 0,-0.447 0.008,-0.672 0.08,0.112 0.16,0.216 0.248,0.32 -0.072,-0.104 -0.144,-0.216 -0.208,-0.32 v -0.008 c -0.016,-0.023 -0.032,-0.048 -0.04,-0.063 -0.072,-0.097 -0.12,-0.145 -0.16,-0.152 h -0.016 c -0.152,0.024 -0.048,0.832 0.168,1.952 v 0.024 c 0.424,2.184 1.313,5.536 1.729,6.688 0.088,0.231 0.151,0.376 0.191,0.399 16.344,11.185 35.775,4.328 36.455,4.089 0.008,-0.008 0.018,-0.008 0.018,-0.008 0,0 0.047,-0.081 0.143,-0.217 0.84,-1.176 1.633,-2.424 2.354,-3.735 0,-0.008 0.008,-0.016 0.016,-0.024 0.535,-0.968 1.039,-1.968 1.504,-3 2.237,-1.305 4.654,-11.938 3.054,-9.906 z m 57.183,-12.864 v 0.081 c 0,0.04 0,0.087 0.009,0.136 v -0.328 c -0.009,0.039 -0.009,0.08 -0.009,0.111 z m 12.456,-1.375 c -2.047,0 -3.703,1.8 -3.703,4.031 0,2.232 1.656,4.032 3.703,4.032 2.049,0 3.712,-1.8 3.712,-4.032 0,-2.231 -1.663,-4.031 -3.712,-4.031 z m 5.985,-21.649 c -0.136,-0.023 -0.272,-0.04 -0.408,-0.048 0.16,0.017 0.32,0.04 0.488,0.063 -0.024,-0.007 -0.057,-0.015 -0.08,-0.015 z m 4.16,10.416 c -0.385,-3.248 -2.952,-5.615 -5.736,-5.288 -2.783,0.328 -4.736,3.224 -4.359,6.464 0.375,3.248 2.943,5.608 5.736,5.288 2.783,-0.328 4.735,-3.223 4.359,-6.464 z m 15.271,12.512 c 0.385,-1.096 -0.704,-5.527 -1.168,-4.464 -0.048,0.096 -0.088,0.192 -0.127,0.288 0.375,1.225 0.695,2.504 0.943,3.816 0.023,0.127 0.047,0.256 0.064,0.384 0.008,0.008 0.008,0.008 0.008,0.017 0.031,0.159 0.056,0.319 0.08,0.472 v 0.016 c 0.375,2.248 0.535,4.456 0.487,6.6 -8.024,17.664 -24.255,17.624 -31.647,12.968 -1.336,-1.832 -2.513,-3.879 -3.488,-6.128 -0.016,-0.032 -0.032,-0.063 -0.048,-0.095 -0.177,-0.4 -0.345,-0.816 -0.504,-1.232 -0.009,-0.017 -0.017,-0.032 -0.017,-0.049 -0.6,-1.535 -1.104,-3.16 -1.479,-4.84 -0.097,-0.352 -0.168,-0.703 -0.241,-1.056 -0.031,-0.136 -0.063,-0.28 -0.087,-0.424 -0.384,-2.009 -0.593,-3.992 -0.64,-5.92 0,0.279 0,0.552 0.008,0.832 0.008,0.424 0.031,0.856 0.057,1.288 0.031,0.607 0.087,1.216 0.15,1.823 0.049,0.448 0.104,0.896 0.176,1.345 0,0.023 0,0.04 0.01,0.056 0.063,0.496 0.15,0.984 0.239,1.48 0.024,0.151 0.056,0.296 0.087,0.439 -0.479,-0.271 -0.743,-0.439 -0.743,-0.439 l 1.688,6.224 c 0,0 2.304,6.096 3.951,7.392 0.281,0.217 0.568,0.425 0.881,0.632 7.393,4.801 23.623,4.84 31.647,-13.367 0.104,-0.232 0.208,-0.465 0.304,-0.704 0.626,-1.481 -0.046,-8.858 -0.591,-7.354 z m -95.055,12.96 c 0.392,-2.271 0.575,-4.512 0.552,-6.68 -0.016,1.88 -0.2,3.823 -0.552,5.792 -0.063,0.368 -0.136,0.728 -0.216,1.096 -0.408,1.96 -0.992,3.944 -1.744,5.92 -0.336,0.889 -0.704,1.761 -1.096,2.601 -0.193,0.424 -0.4,0.84 -0.608,1.247 -0.063,0.129 -0.128,0.257 -0.192,0.377 -0.912,1.752 -1.951,3.408 -3.072,4.928 -0.096,0.137 -0.143,0.216 -0.143,0.216 0,0 -0.01,0 -0.018,0.008 -0.68,0.232 -20.111,6.881 -36.455,-3.968 -0.24,-0.168 -1.408,-4.344 -1.92,-6.88 v -0.024 c 0,-0.224 0,-0.447 0.008,-0.672 0.08,0.112 0.16,0.216 0.248,0.32 -0.072,-0.104 -0.144,-0.216 -0.208,-0.32 v -0.008 c -0.016,-0.023 -0.032,-0.048 -0.04,-0.063 -0.072,-0.097 -0.12,-0.145 -0.16,-0.152 h -0.016 c -0.152,0.024 -0.048,0.832 0.168,1.952 v 0.024 c 0.424,2.184 1.313,5.536 1.729,6.688 0.088,0.231 0.151,0.376 0.191,0.399 16.344,11.185 35.775,4.328 36.455,4.089 0.008,-0.008 0.018,-0.008 0.018,-0.008 0,0 0.047,-0.081 0.143,-0.217 0.84,-1.176 1.633,-2.424 2.354,-3.735 0,-0.008 0.008,-0.016 0.016,-0.024 0.535,-0.968 1.039,-1.968 1.504,-3 2.237,-1.305 4.654,-11.938 3.054,-9.906 z m -13.536,-11.208 c 2.809,0 5.08,-2.648 5.08,-5.92 0,-3.264 -2.271,-5.912 -5.08,-5.912 -2.809,0 -5.08,2.648 -5.08,5.912 0,3.272 2.271,5.92 5.08,5.92 z m -11.264,11.208 c 2.056,0 3.711,-1.808 3.711,-4.04 0,-2.224 -1.655,-4.031 -3.711,-4.031 -2.049,0 -3.704,1.808 -3.704,4.031 0,2.232 1.655,4.04 3.704,4.04 z m -20.616,2.96 v -0.008 c 0.056,-1.191 0.176,-2.408 0.376,-3.64 -0.384,1.424 -0.864,3.64 -0.416,4.552 0.008,-0.303 0.024,-0.599 0.04,-0.904 z m 143.47,-28.768 -4.152,4.783 c 1.049,2.409 1.896,5 2.496,7.737 3.512,16 -2.664,30.951 -13.775,33.384 -11.12,2.439 -22.984,-8.553 -26.496,-24.553 -3.504,-16.008 2.664,-30.951 13.783,-33.392 7,-1.536 14.289,2.248 19.601,9.256 2.984,-1.456 6.496,-3.608 6.712,-3.736 l -5.096,6.057 -0.952,1.128 -0.12,0.144 -1.52,1.808 2.088,-0.848 0.16,-0.063 1.32,-0.544 5.664,-2.313 c -2.545,-9.968 -6.018,-19.304 -10.193,-27.928 -10.728,-22.168 -26.119,-39.672 -42.527,-51.168 l -0.008,-0.008 c -11.783,-8.256 -24.088,-13.424 -35.561,-14.992 -2.968,-0.416 -5.887,-0.584 -8.719,-0.496 h -0.064 c -10.616,0.328 -22.248,4.76 -33.6,12.384 -0.033,0.024 -0.049,0.041 -0.049,0.041 -34.136,22.959 -65.696,74.767 -59.304,130.26 0.144,1.289 0.312,2.576 0.504,3.864 2.016,13.729 12.992,22.04 27.144,26.968 0.008,0.008 0.008,0.008 0.016,0.008 0.56,0.192 1.12,0.385 1.688,0.568 h 0.008 c 31.161,10.104 76.104,4.76 76.104,4.76 0,0 7.535,5.24 22.207,5.24 1.049,0 2.064,-0.072 3.049,-0.2 h 0.008 c 13.111,-1.743 20.992,-14.119 20.992,-14.119 0,0 33.951,-8.736 41.496,-23.849 0.872,-1.729 1.392,-3.536 1.473,-5.432 0.688,-15.968 -0.961,-30.952 -4.377,-44.744 z m -140.26,16.008 1.465,0.6 -1.137,-1.352 -0.168,-0.199 v -0.009 l -1.84,-2.176 -6.48,-7.696 c 0,0 4.296,2.648 8.072,4.528 7.191,-13.032 19.408,-20.368 30.04,-16.968 12.808,4.096 18.464,22.224 12.624,40.488 -5.84,18.264 -20.96,29.751 -33.768,25.655 -12.369,-3.952 -18.057,-20.968 -13.192,-38.56 l -8.184,-9.424 9.992,4.063 2.36,0.96 z m 136.09,-7.624 c -0.048,0.096 -0.088,0.192 -0.127,0.288 0.375,1.225 0.695,2.504 0.943,3.816 0.023,0.127 0.047,0.256 0.064,0.384 0.008,0.008 0.008,0.008 0.008,0.017 0.031,0.159 0.056,0.319 0.08,0.472 v 0.016 c 0.375,2.248 0.535,4.456 0.487,6.6 -8.024,17.664 -24.255,17.624 -31.647,12.968 -1.336,-1.832 -2.513,-3.879 -3.488,-6.128 -0.016,-0.032 -0.032,-0.063 -0.048,-0.095 -0.177,-0.4 -0.345,-0.816 -0.504,-1.232 -0.009,-0.017 -0.017,-0.032 -0.017,-0.049 -0.6,-1.535 -1.104,-3.16 -1.479,-4.84 -0.097,-0.352 -0.168,-0.703 -0.241,-1.056 -0.031,-0.136 -0.063,-0.28 -0.087,-0.424 -0.384,-2.009 -0.593,-3.992 -0.64,-5.92 0,0.279 0,0.552 0.008,0.832 0.008,0.424 0.031,0.856 0.057,1.288 0.031,0.607 0.087,1.216 0.15,1.823 0.049,0.448 0.104,0.896 0.176,1.345 0,0.023 0,0.04 0.01,0.056 0.063,0.496 0.15,0.984 0.239,1.48 0.024,0.151 0.056,0.296 0.087,0.439 -0.479,-0.271 -0.743,-0.439 -0.743,-0.439 l 1.688,6.224 c 0,0 2.304,6.096 3.951,7.392 0.281,0.217 0.568,0.425 0.881,0.632 7.393,4.801 23.623,4.84 31.647,-13.367 0.104,-0.232 0.208,-0.465 0.304,-0.704 0.625,-1.479 -0.047,-8.856 -0.592,-7.353 0.385,-1.097 -0.704,-5.528 -1.167,-4.465 z m -19.84,-13.336 c -2.783,0.328 -4.736,3.224 -4.359,6.464 0.375,3.248 2.943,5.608 5.736,5.288 2.783,-0.328 4.735,-3.224 4.359,-6.464 -0.385,-3.248 -2.952,-5.615 -5.736,-5.288 z m 1.168,-5.176 c 0.16,0.017 0.32,0.04 0.488,0.063 -0.024,-0.008 -0.057,-0.016 -0.08,-0.016 -0.136,-0.022 -0.273,-0.039 -0.408,-0.047 z m -9.28,25.728 c 0,2.232 1.656,4.032 3.703,4.032 2.049,0 3.712,-1.8 3.712,-4.032 0,-2.231 -1.663,-4.031 -3.712,-4.031 -2.046,0 -3.703,1.8 -3.703,4.031 z m -8.744,-2.768 c -0.009,0.04 -0.009,0.08 -0.009,0.111 v 0.081 c 0,0.04 0,0.087 0.009,0.136 z m -102.66,17.608 c 0,-0.224 0,-0.447 0.008,-0.672 0.08,0.112 0.16,0.216 0.248,0.32 -0.072,-0.104 -0.144,-0.216 -0.208,-0.32 v -0.008 c -0.016,-0.023 -0.032,-0.048 -0.04,-0.063 -0.072,-0.097 -0.12,-0.145 -0.16,-0.152 h -0.016 c -0.152,0.024 -0.048,0.832 0.168,1.952 v 0.024 c 0.424,2.184 1.313,5.536 1.729,6.688 0.088,0.231 0.151,0.376 0.191,0.399 16.344,11.185 35.775,4.328 36.455,4.089 0.008,-0.008 0.018,-0.008 0.018,-0.008 0,0 0.047,-0.081 0.143,-0.217 0.84,-1.176 1.633,-2.424 2.354,-3.735 0,-0.008 0.008,-0.016 0.016,-0.024 0.535,-0.968 1.039,-1.968 1.504,-3 2.239,-1.304 4.656,-11.937 3.056,-9.904 0.392,-2.271 0.575,-4.512 0.552,-6.68 -0.016,1.88 -0.2,3.823 -0.552,5.792 -0.063,0.368 -0.136,0.728 -0.216,1.096 -0.408,1.96 -0.992,3.944 -1.744,5.92 -0.336,0.889 -0.704,1.761 -1.096,2.601 -0.193,0.424 -0.4,0.84 -0.608,1.247 -0.063,0.129 -0.128,0.257 -0.192,0.377 -0.912,1.752 -1.951,3.408 -3.072,4.928 -0.096,0.137 -0.143,0.216 -0.143,0.216 0,0 -0.01,0 -0.018,0.008 -0.68,0.232 -20.111,6.881 -36.455,-3.968 -0.24,-0.168 -1.408,-4.344 -1.92,-6.88 v -0.026 z m 31.928,-15.84 c 2.809,0 5.08,-2.648 5.08,-5.92 0,-3.264 -2.271,-5.912 -5.08,-5.912 -2.809,0 -5.08,2.648 -5.08,5.912 0,3.272 2.271,5.92 5.08,5.92 z m -11.264,11.208 c 2.056,0 3.711,-1.808 3.711,-4.04 0,-2.224 -1.655,-4.031 -3.711,-4.031 -2.049,0 -3.704,1.808 -3.704,4.031 0,2.232 1.655,4.04 3.704,4.04 z m -20.616,2.96 v -0.008 c 0.056,-1.191 0.176,-2.408 0.376,-3.64 -0.384,1.424 -0.864,3.64 -0.416,4.552 0.008,-0.303 0.024,-0.599 0.04,-0.904 z m 121.04,-38.848 c -0.136,-0.023 -0.272,-0.04 -0.408,-0.048 0.16,0.017 0.32,0.04 0.488,0.063 -0.024,-0.007 -0.057,-0.015 -0.08,-0.015 z m 18.264,18.464 c -0.048,0.096 -0.088,0.192 -0.127,0.288 0.375,1.225 0.695,2.504 0.943,3.816 0.023,0.127 0.047,0.256 0.064,0.384 0.008,0.008 0.008,0.008 0.008,0.017 0.031,0.159 0.056,0.319 0.08,0.472 0.072,-0.168 0.136,-0.336 0.199,-0.513 0.385,-1.096 -0.704,-5.527 -1.167,-4.464 z M 258.922,362.2 c 0.008,-0.304 0.024,-0.6 0.04,-0.904 v -0.008 c 0.056,-1.191 0.176,-2.408 0.376,-3.64 -0.385,1.424 -0.864,3.64 -0.416,4.552 z m 20.656,-11.935 c -2.049,0 -3.704,1.808 -3.704,4.031 0,2.232 1.655,4.04 3.704,4.04 2.056,0 3.711,-1.808 3.711,-4.04 0,-2.224 -1.655,-4.031 -3.711,-4.031 z m 11.264,-14.969 c -2.809,0 -5.08,2.648 -5.08,5.912 0,3.271 2.271,5.92 5.08,5.92 2.809,0 5.08,-2.648 5.08,-5.92 0,-3.264 -2.272,-5.912 -5.08,-5.912 z m 13.536,23.04 c 0.392,-2.271 0.575,-4.512 0.552,-6.68 -0.016,1.88 -0.2,3.823 -0.552,5.792 -0.063,0.368 -0.136,0.728 -0.216,1.096 -0.408,1.96 -0.992,3.944 -1.744,5.92 -0.336,0.889 -0.704,1.761 -1.096,2.601 -0.193,0.424 -0.4,0.84 -0.608,1.247 -0.063,0.129 -0.128,0.257 -0.192,0.377 -0.912,1.752 -1.951,3.408 -3.072,4.928 -0.096,0.137 -0.143,0.216 -0.143,0.216 0,0 -0.01,0 -0.018,0.008 -0.68,0.232 -20.111,6.881 -36.455,-3.968 -0.24,-0.168 -1.408,-4.344 -1.92,-6.88 v -0.024 c 0,-0.224 0,-0.447 0.008,-0.672 0.08,0.112 0.16,0.216 0.248,0.32 -0.072,-0.104 -0.144,-0.216 -0.208,-0.32 v -0.008 c -0.016,-0.023 -0.032,-0.048 -0.04,-0.063 -0.072,-0.097 -0.12,-0.145 -0.16,-0.152 h -0.016 c -0.152,0.024 -0.048,0.832 0.168,1.952 v 0.024 c 0.424,2.184 1.313,5.536 1.729,6.688 0.088,0.231 0.151,0.376 0.191,0.399 16.344,11.185 35.775,4.328 36.455,4.089 0.008,-0.008 0.018,-0.008 0.018,-0.008 0,0 0.047,-0.081 0.143,-0.217 0.84,-1.176 1.633,-2.424 2.354,-3.735 0,-0.008 0.008,-0.016 0.016,-0.024 0.535,-0.968 1.039,-1.968 1.504,-3 2.237,-1.305 4.654,-11.938 3.054,-9.906 z m 0,0 c 0.392,-2.271 0.575,-4.512 0.552,-6.68 -0.016,1.88 -0.2,3.823 -0.552,5.792 -0.063,0.368 -0.136,0.728 -0.216,1.096 -0.408,1.96 -0.992,3.944 -1.744,5.92 -0.336,0.889 -0.704,1.761 -1.096,2.601 -0.193,0.424 -0.4,0.84 -0.608,1.247 -0.063,0.129 -0.128,0.257 -0.192,0.377 -0.912,1.752 -1.951,3.408 -3.072,4.928 -0.096,0.137 -0.143,0.216 -0.143,0.216 0,0 -0.01,0 -0.018,0.008 -0.68,0.232 -20.111,6.881 -36.455,-3.968 -0.24,-0.168 -1.408,-4.344 -1.92,-6.88 v -0.024 c 0,-0.224 0,-0.447 0.008,-0.672 0.08,0.112 0.16,0.216 0.248,0.32 -0.072,-0.104 -0.144,-0.216 -0.208,-0.32 v -0.008 c -0.016,-0.023 -0.032,-0.048 -0.04,-0.063 -0.072,-0.097 -0.12,-0.145 -0.16,-0.152 h -0.016 c -0.152,0.024 -0.048,0.832 0.168,1.952 v 0.024 c 0.424,2.184 1.313,5.536 1.729,6.688 0.088,0.231 0.151,0.376 0.191,0.399 16.344,11.185 35.775,4.328 36.455,4.089 0.008,-0.008 0.018,-0.008 0.018,-0.008 0,0 0.047,-0.081 0.143,-0.217 0.84,-1.176 1.633,-2.424 2.354,-3.735 0,-0.008 0.008,-0.016 0.016,-0.024 0.535,-0.968 1.039,-1.968 1.504,-3 2.237,-1.305 4.654,-11.938 3.054,-9.906 z m -13.536,-23.04 c -2.809,0 -5.08,2.648 -5.08,5.912 0,3.271 2.271,5.92 5.08,5.92 2.809,0 5.08,-2.648 5.08,-5.92 0,-3.264 -2.272,-5.912 -5.08,-5.912 z m -11.264,14.969 c -2.049,0 -3.704,1.808 -3.704,4.031 0,2.232 1.655,4.04 3.704,4.04 2.056,0 3.711,-1.808 3.711,-4.04 0,-2.224 -1.655,-4.031 -3.711,-4.031 z M 258.922,362.2 c 0.008,-0.304 0.024,-0.6 0.04,-0.904 v -0.008 c 0.056,-1.191 0.176,-2.408 0.376,-3.64 -0.385,1.424 -0.864,3.64 -0.416,4.552 z m 121.08,-39.752 c -0.136,-0.023 -0.272,-0.04 -0.408,-0.048 0.16,0.017 0.32,0.04 0.488,0.063 -0.024,-0.007 -0.057,-0.015 -0.08,-0.015 z m 18.264,18.464 c -0.048,0.096 -0.088,0.192 -0.127,0.288 0.375,1.225 0.695,2.504 0.943,3.816 0.023,0.127 0.047,0.256 0.064,0.384 0.008,0.008 0.008,0.008 0.008,0.017 0.031,0.159 0.056,0.319 0.08,0.472 0.072,-0.168 0.136,-0.336 0.199,-0.513 0.385,-1.096 -0.704,-5.527 -1.167,-4.464 z M 258.926,362.2 c 0.008,-0.304 0.024,-0.6 0.04,-0.904 v -0.008 c 0.056,-1.191 0.176,-2.408 0.376,-3.64 -0.385,1.424 -0.864,3.64 -0.416,4.552 z m 41.599,6.489 c -0.912,1.752 -1.951,3.408 -3.072,4.928 -0.096,0.137 -0.143,0.216 -0.143,0.216 0,0 -0.01,0 -0.018,0.008 -0.68,0.232 -20.111,6.881 -36.455,-3.968 -0.24,-0.168 -1.408,-4.344 -1.92,-6.88 v -0.024 c 0,-0.224 0,-0.447 0.008,-0.672 0.08,0.112 0.16,0.216 0.248,0.32 -0.072,-0.104 -0.144,-0.216 -0.208,-0.32 v -0.008 c -0.016,-0.023 -0.032,-0.048 -0.04,-0.063 -0.072,-0.097 -0.12,-0.145 -0.16,-0.152 h -0.016 c -0.152,0.024 -0.048,0.832 0.168,1.952 v 0.024 c 0.424,2.184 1.313,5.536 1.729,6.688 0.088,0.231 0.151,0.376 0.191,0.399 16.344,11.185 35.775,4.328 36.455,4.089 0.008,-0.008 0.018,-0.008 0.018,-0.008 0,0 0.047,-0.081 0.143,-0.217 0.84,-1.176 1.633,-2.424 2.354,-3.735 0,-0.008 0.008,-0.016 0.016,-0.024 0.535,-0.968 1.039,-1.968 1.504,-3 -0.202,0.214 -0.497,0.334 -0.802,0.447 z m 3.857,-10.353 c 1.032,-1.032 -2.168,8.952 -3.056,9.904 2.239,-1.303 4.656,-11.936 3.056,-9.904 z m -45.456,3.864 c 0.008,-0.304 0.024,-0.6 0.04,-0.904 v -0.008 c 0.056,-1.191 0.176,-2.408 0.376,-3.64 -0.385,1.424 -0.864,3.64 -0.416,4.552 z m 41.599,6.489 c -0.912,1.752 -1.951,3.408 -3.072,4.928 -0.096,0.137 -0.143,0.216 -0.143,0.216 0,0 -0.01,0 -0.018,0.008 -0.68,0.232 -20.111,6.881 -36.455,-3.968 -0.24,-0.168 -1.408,-4.344 -1.92,-6.88 v -0.024 c 0,-0.224 0,-0.447 0.008,-0.672 -0.04,-0.056 -0.088,-0.111 -0.128,-0.168 l 0.128,0.129 v -0.032 c -0.072,-0.097 -0.12,-0.145 -0.16,-0.152 h -0.016 c -0.152,0.024 -0.048,0.832 0.168,1.952 v 0.024 c 0.424,2.184 1.313,5.536 1.729,6.688 0.088,0.231 0.151,0.376 0.191,0.399 16.344,11.185 35.775,4.328 36.455,4.089 0.008,-0.008 0.018,-0.008 0.018,-0.008 0,0 0.047,-0.081 0.143,-0.217 0.84,-1.176 1.633,-2.424 2.354,-3.735 0,-0.008 0.008,-0.016 0.016,-0.024 0.535,-0.968 1.039,-1.968 1.504,-3 -0.202,0.214 -0.497,0.334 -0.802,0.447 z m 3.857,-10.353 c 1.032,-1.032 -2.168,8.952 -3.056,9.904 2.239,-1.303 4.656,-11.936 3.056,-9.904 z"
           id="path18" />
        <path
           style="fill:#d8bd8f"
           inkscape:connector-curvature="0"
           d="m 304.38,358.33 c 1.032,-1.032 -2.168,8.952 -3.056,9.904 2.239,-1.303 4.656,-11.936 3.056,-9.904 z m -3.857,10.353 c -0.912,1.752 -1.951,3.408 -3.072,4.928 -0.096,0.137 -0.143,0.216 -0.143,0.216 0,0 -0.01,0 -0.018,0.008 -0.68,0.232 -20.111,6.881 -36.455,-3.968 -0.24,-0.168 -1.408,-4.344 -1.92,-6.88 v -0.024 c 0,-0.224 0,-0.447 0.008,-0.672 -0.04,-0.056 -0.088,-0.111 -0.128,-0.168 l 0.128,0.129 v -0.032 c -0.072,-0.097 -0.12,-0.145 -0.16,-0.152 h -0.016 c -0.152,0.024 -0.048,0.832 0.168,1.952 v 0.024 c 0.424,2.184 1.313,5.536 1.729,6.688 0.088,0.231 0.151,0.376 0.191,0.399 16.344,11.185 35.775,4.328 36.455,4.089 0.008,-0.008 0.018,-0.008 0.018,-0.008 0,0 0.047,-0.081 0.143,-0.217 0.84,-1.176 1.633,-2.424 2.354,-3.735 0,-0.008 0.008,-0.016 0.016,-0.024 0.535,-0.968 1.039,-1.968 1.504,-3 -0.202,0.214 -0.497,0.334 -0.802,0.447 z m -41.599,-6.489 c 0.008,-0.304 0.024,-0.6 0.04,-0.904 v -0.008 c 0.056,-1.191 0.176,-2.408 0.376,-3.64 -0.385,1.424 -0.864,3.64 -0.416,4.552 z m 3.816,-19.647 c -0.209,-0.104 -0.433,-0.209 -0.648,-0.32 0.225,0.111 0.432,0.216 0.648,0.328 0.008,0 0.016,0 0.023,0.008 -0.007,-0.008 -0.015,-0.016 -0.023,-0.016 z m 16.84,7.712 c -2.049,0 -3.704,1.808 -3.704,4.031 0,2.232 1.655,4.04 3.704,4.04 2.056,0 3.711,-1.808 3.711,-4.04 0,-2.224 -1.655,-4.031 -3.711,-4.031 z m 11.264,-14.969 c -2.809,0 -5.08,2.648 -5.08,5.912 0,3.271 2.271,5.92 5.08,5.92 2.809,0 5.08,-2.648 5.08,-5.92 0,-3.264 -2.272,-5.912 -5.08,-5.912 z m 13.536,23.04 c 0.392,-2.271 0.575,-4.512 0.552,-6.68 -0.016,1.88 -0.2,3.823 -0.552,5.792 -0.063,0.368 -0.136,0.728 -0.216,1.096 -0.408,1.96 -0.992,3.944 -1.744,5.92 -0.336,0.889 -0.704,1.761 -1.096,2.601 -0.193,0.424 -0.4,0.84 -0.608,1.247 -0.063,0.129 -0.128,0.257 -0.192,0.377 -0.912,1.752 -1.951,3.408 -3.072,4.928 -0.096,0.137 -0.143,0.216 -0.143,0.216 0,0 -0.01,0 -0.018,0.008 -0.68,0.232 -20.111,6.881 -36.455,-3.968 -0.24,-0.168 -1.408,-4.344 -1.92,-6.88 v -0.024 c 0,-0.224 0,-0.447 0.008,-0.672 0.08,0.112 0.16,0.216 0.248,0.32 -0.072,-0.104 -0.144,-0.216 -0.208,-0.32 v -0.008 c -0.016,-0.023 -0.032,-0.048 -0.04,-0.063 -0.072,-0.097 -0.12,-0.145 -0.16,-0.152 h -0.016 c -0.152,0.024 -0.048,0.832 0.168,1.952 v 0.024 c 0.424,2.184 1.313,5.536 1.729,6.688 0.088,0.231 0.151,0.376 0.191,0.399 16.344,11.185 35.775,4.328 36.455,4.089 0.008,-0.008 0.018,-0.008 0.018,-0.008 0,0 0.047,-0.081 0.143,-0.217 0.84,-1.176 1.633,-2.424 2.354,-3.735 0,-0.008 0.008,-0.016 0.016,-0.024 0.535,-0.968 1.039,-1.968 1.504,-3 2.237,-1.305 4.654,-11.938 3.054,-9.906 z m 0,0 c 0.392,-2.271 0.575,-4.512 0.552,-6.68 -0.016,1.88 -0.2,3.823 -0.552,5.792 -0.063,0.368 -0.136,0.728 -0.216,1.096 -0.408,1.96 -0.992,3.944 -1.744,5.92 -0.336,0.889 -0.704,1.761 -1.096,2.601 -0.193,0.424 -0.4,0.84 -0.608,1.247 -0.063,0.129 -0.128,0.257 -0.192,0.377 -0.912,1.752 -1.951,3.408 -3.072,4.928 -0.096,0.137 -0.143,0.216 -0.143,0.216 0,0 -0.01,0 -0.018,0.008 -0.68,0.232 -20.111,6.881 -36.455,-3.968 -0.24,-0.168 -1.408,-4.344 -1.92,-6.88 v -0.024 c 0,-0.224 0,-0.447 0.008,-0.672 0.08,0.112 0.16,0.216 0.248,0.32 -0.072,-0.104 -0.144,-0.216 -0.208,-0.32 v -0.008 c -0.016,-0.023 -0.032,-0.048 -0.04,-0.063 -0.072,-0.097 -0.12,-0.145 -0.16,-0.152 h -0.016 c -0.152,0.024 -0.048,0.832 0.168,1.952 v 0.024 c 0.424,2.184 1.313,5.536 1.729,6.688 0.088,0.231 0.151,0.376 0.191,0.399 16.344,11.185 35.775,4.328 36.455,4.089 0.008,-0.008 0.018,-0.008 0.018,-0.008 0,0 0.047,-0.081 0.143,-0.217 0.84,-1.176 1.633,-2.424 2.354,-3.735 0,-0.008 0.008,-0.016 0.016,-0.024 0.535,-0.968 1.039,-1.968 1.504,-3 2.237,-1.305 4.654,-11.938 3.054,-9.906 z m -13.536,-11.208 c 2.809,0 5.08,-2.648 5.08,-5.92 0,-3.264 -2.271,-5.912 -5.08,-5.912 -2.809,0 -5.08,2.648 -5.08,5.912 0,3.272 2.271,5.92 5.08,5.92 z M 279.58,358.33 c 2.056,0 3.711,-1.808 3.711,-4.04 0,-2.224 -1.655,-4.031 -3.711,-4.031 -2.049,0 -3.704,1.808 -3.704,4.031 0,2.232 1.655,4.04 3.704,4.04 z m -16.816,-15.768 c -0.008,-0.008 -0.016,-0.016 -0.023,-0.016 -0.209,-0.104 -0.433,-0.209 -0.648,-0.32 0.225,0.111 0.432,0.216 0.648,0.328 0.007,0.001 0.015,0.001 0.023,0.008 z m -3.8,18.728 v -0.008 c 0.056,-1.191 0.176,-2.408 0.376,-3.64 -0.384,1.424 -0.864,3.64 -0.416,4.552 0.008,-0.303 0.024,-0.599 0.04,-0.904 z m 16.912,-54.336 c -22.84,0 -41.353,20.24 -41.353,45.208 0,24.968 18.512,45.208 41.353,45.208 22.832,0 41.344,-20.24 41.344,-45.208 0,-24.968 -18.512,-45.208 -41.344,-45.208 z m -4.888,84.448 c -12.369,-3.952 -18.057,-20.968 -13.192,-38.56 l -8.184,-9.424 9.992,4.063 2.36,0.96 0.216,0.088 1.465,0.6 -1.137,-1.352 -0.168,-0.199 v -0.009 l -1.84,-2.176 -6.48,-7.696 c 0,0 4.296,2.648 8.072,4.528 7.191,-13.032 19.408,-20.368 30.04,-16.968 12.808,4.096 18.464,22.224 12.624,40.488 -5.84,18.266 -20.96,29.753 -33.768,25.657 z M 304.38,358.33 c 0.392,-2.271 0.575,-4.512 0.552,-6.68 -0.016,1.88 -0.2,3.823 -0.552,5.792 -0.063,0.368 -0.136,0.728 -0.216,1.096 -0.408,1.96 -0.992,3.944 -1.744,5.92 -0.336,0.889 -0.704,1.761 -1.096,2.601 -0.193,0.424 -0.4,0.84 -0.608,1.247 -0.063,0.129 -0.128,0.257 -0.192,0.377 -0.912,1.752 -1.951,3.408 -3.072,4.928 -0.096,0.137 -0.143,0.216 -0.143,0.216 0,0 -0.01,0 -0.018,0.008 -0.68,0.232 -20.111,6.881 -36.455,-3.968 -0.24,-0.168 -1.408,-4.344 -1.92,-6.88 v -0.024 c 0,-0.224 0,-0.447 0.008,-0.672 0.08,0.112 0.16,0.216 0.248,0.32 -0.072,-0.104 -0.144,-0.216 -0.208,-0.32 v -0.008 c -0.016,-0.023 -0.032,-0.048 -0.04,-0.063 -0.072,-0.097 -0.12,-0.145 -0.16,-0.152 h -0.016 c -0.152,0.024 -0.048,0.832 0.168,1.952 v 0.024 c 0.424,2.184 1.313,5.536 1.729,6.688 0.088,0.231 0.151,0.376 0.191,0.399 16.344,11.185 35.775,4.328 36.455,4.089 0.008,-0.008 0.018,-0.008 0.018,-0.008 0,0 0.047,-0.081 0.143,-0.217 0.84,-1.176 1.633,-2.424 2.354,-3.735 0,-0.008 0.008,-0.016 0.016,-0.024 0.535,-0.968 1.039,-1.968 1.504,-3 2.237,-1.305 4.654,-11.938 3.054,-9.906 z m -13.536,-11.208 c 2.809,0 5.08,-2.648 5.08,-5.92 0,-3.264 -2.271,-5.912 -5.08,-5.912 -2.809,0 -5.08,2.648 -5.08,5.912 0,3.272 2.271,5.92 5.08,5.92 z M 279.58,358.33 c 2.056,0 3.711,-1.808 3.711,-4.04 0,-2.224 -1.655,-4.031 -3.711,-4.031 -2.049,0 -3.704,1.808 -3.704,4.031 0,2.232 1.655,4.04 3.704,4.04 z m -16.816,-15.768 c -0.008,-0.008 -0.016,-0.016 -0.023,-0.016 -0.209,-0.104 -0.433,-0.209 -0.648,-0.32 0.225,0.111 0.432,0.216 0.648,0.328 0.007,0.001 0.015,0.001 0.023,0.008 z m -3.8,18.728 v -0.008 c 0.056,-1.191 0.176,-2.408 0.376,-3.64 -0.384,1.424 -0.864,3.64 -0.416,4.552 0.008,-0.303 0.024,-0.599 0.04,-0.904 z m -0.04,0.904 c 0.008,-0.304 0.024,-0.6 0.04,-0.904 v -0.008 c 0.056,-1.191 0.176,-2.408 0.376,-3.64 -0.385,1.424 -0.864,3.64 -0.416,4.552 z m 41.599,6.489 c -0.912,1.752 -1.951,3.408 -3.072,4.928 -0.096,0.137 -0.143,0.216 -0.143,0.216 0,0 -0.01,0 -0.018,0.008 -0.68,0.232 -20.111,6.881 -36.455,-3.968 -0.24,-0.168 -1.408,-4.344 -1.92,-6.88 v -0.024 c 0,-0.224 0,-0.447 0.008,-0.672 0.08,0.112 0.16,0.216 0.248,0.32 -0.072,-0.104 -0.144,-0.216 -0.208,-0.32 v -0.008 c -0.016,-0.023 -0.032,-0.048 -0.04,-0.063 -0.072,-0.097 -0.12,-0.145 -0.16,-0.152 h -0.016 c -0.152,0.024 -0.048,0.832 0.168,1.952 v 0.024 c 0.424,2.184 1.313,5.536 1.729,6.688 0.088,0.231 0.151,0.376 0.191,0.399 16.344,11.185 35.775,4.328 36.455,4.089 0.008,-0.008 0.018,-0.008 0.018,-0.008 0,0 0.047,-0.081 0.143,-0.217 0.84,-1.176 1.633,-2.424 2.354,-3.735 0,-0.008 0.008,-0.016 0.016,-0.024 0.535,-0.968 1.039,-1.968 1.504,-3 -0.202,0.214 -0.497,0.334 -0.802,0.447 z m 3.857,-10.353 c 1.032,-1.032 -2.168,8.952 -3.056,9.904 2.239,-1.303 4.656,-11.936 3.056,-9.904 z m -45.456,3.864 c 0.008,-0.304 0.024,-0.6 0.04,-0.904 v -0.008 c 0.056,-1.191 0.176,-2.408 0.376,-3.64 -0.385,1.424 -0.864,3.64 -0.416,4.552 z"
           id="path20" />
        <path
           style="fill:#d8bd8f"
           inkscape:connector-curvature="0"
           d="m 374.02,344.09 c -2.047,0 -3.703,1.8 -3.703,4.031 0,2.232 1.656,4.032 3.703,4.032 2.049,0 3.712,-1.8 3.712,-4.032 0,-2.231 -1.663,-4.031 -3.712,-4.031 z m 10.145,-11.233 c -0.385,-3.248 -2.952,-5.615 -5.736,-5.288 -2.783,0.328 -4.736,3.224 -4.359,6.464 0.375,3.248 2.943,5.608 5.736,5.288 2.783,-0.328 4.735,-3.223 4.359,-6.464 z m 0.76,-8.824 c 0.504,0.256 1.008,0.545 1.504,0.856 -0.496,-0.32 -0.993,-0.608 -1.504,-0.856 z m 14.511,21.336 c 0.385,-1.096 -0.704,-5.527 -1.168,-4.464 -0.048,0.096 -0.088,0.192 -0.127,0.288 0.375,1.225 0.695,2.504 0.943,3.816 0.023,0.127 0.047,0.256 0.064,0.384 0.008,0.008 0.008,0.008 0.008,0.017 0.031,0.159 0.056,0.319 0.08,0.472 v 0.016 c 0.375,2.248 0.535,4.456 0.487,6.6 -8.024,17.664 -24.255,17.624 -31.647,12.968 -1.336,-1.832 -2.513,-3.879 -3.488,-6.128 -0.016,-0.032 -0.032,-0.063 -0.048,-0.095 -0.177,-0.4 -0.345,-0.816 -0.504,-1.232 -0.009,-0.017 -0.017,-0.032 -0.017,-0.049 -0.6,-1.535 -1.104,-3.16 -1.479,-4.84 -0.097,-0.352 -0.168,-0.703 -0.241,-1.056 -0.031,-0.136 -0.063,-0.28 -0.087,-0.424 -0.384,-2.009 -0.593,-3.992 -0.64,-5.92 v -0.368 c -0.009,0.04 -0.009,0.08 -0.009,0.111 v 0.081 c 0,0.336 0.009,0.672 0.017,1.008 0.008,0.424 0.031,0.856 0.057,1.288 0.031,0.607 0.087,1.216 0.15,1.823 0.049,0.448 0.104,0.896 0.176,1.345 0,0.023 0,0.04 0.01,0.056 0.063,0.496 0.15,0.984 0.239,1.48 0.024,0.151 0.056,0.296 0.087,0.439 -0.479,-0.271 -0.743,-0.439 -0.743,-0.439 l 1.688,6.224 c 0,0 2.304,6.096 3.951,7.392 0.281,0.217 0.568,0.425 0.881,0.632 7.393,4.801 23.623,4.84 31.647,-13.367 0.104,-0.232 0.208,-0.465 0.304,-0.704 0.626,-1.481 -0.046,-8.858 -0.591,-7.354 z m 2.713,-14 c 0.104,0.385 0.199,0.768 0.287,1.152 l 1.705,-1.96 z m 0.287,1.152 -4.152,4.783 c 1.049,2.409 1.896,5 2.496,7.737 3.512,16 -2.664,30.951 -13.775,33.384 -11.12,2.439 -22.984,-8.553 -26.496,-24.553 -3.504,-16.008 2.664,-30.951 13.783,-33.392 7,-1.536 14.289,2.248 19.601,9.256 2.984,-1.456 6.496,-3.608 6.712,-3.736 l -5.096,6.057 -0.952,1.128 -0.12,0.144 -1.52,1.808 2.088,-0.848 0.16,-0.063 1.32,-0.544 5.664,-2.313 c -2.545,-9.968 -6.018,-19.304 -10.193,-27.928 -19.807,0.912 -35.607,18.76 -35.607,40.648 0,22.472 16.656,40.688 37.208,40.688 4.12,0 11.784,-2.08 13.257,-7.512 0.687,-15.968 -0.962,-30.952 -4.378,-44.744 z m -4.167,8.384 c -0.048,0.096 -0.088,0.192 -0.127,0.288 0.375,1.225 0.695,2.504 0.943,3.816 0.023,0.127 0.047,0.256 0.064,0.384 0.008,0.008 0.008,0.008 0.008,0.017 0.031,0.159 0.056,0.319 0.08,0.472 v 0.016 c 0.375,2.248 0.535,4.456 0.487,6.6 -8.024,17.664 -24.255,17.624 -31.647,12.968 -1.336,-1.832 -2.513,-3.879 -3.488,-6.128 -0.016,-0.032 -0.032,-0.063 -0.048,-0.095 -0.177,-0.4 -0.345,-0.816 -0.504,-1.232 -0.009,-0.017 -0.017,-0.032 -0.017,-0.049 -0.6,-1.535 -1.104,-3.16 -1.479,-4.84 -0.097,-0.352 -0.168,-0.703 -0.241,-1.056 -0.031,-0.136 -0.063,-0.28 -0.087,-0.424 -0.384,-2.009 -0.593,-3.992 -0.64,-5.92 v -0.368 c -0.009,0.04 -0.009,0.08 -0.009,0.111 v 0.081 c 0,0.336 0.009,0.672 0.017,1.008 0.008,0.424 0.031,0.856 0.057,1.288 0.031,0.607 0.087,1.216 0.15,1.823 0.049,0.448 0.104,0.896 0.176,1.345 0,0.023 0,0.04 0.01,0.056 0.063,0.496 0.15,0.984 0.239,1.48 0.024,0.151 0.056,0.296 0.087,0.439 -0.479,-0.271 -0.743,-0.439 -0.743,-0.439 l 1.688,6.224 c 0,0 2.304,6.096 3.951,7.392 0.281,0.217 0.568,0.425 0.881,0.632 7.393,4.801 23.623,4.84 31.647,-13.367 0.104,-0.232 0.208,-0.465 0.304,-0.704 0.625,-1.479 -0.047,-8.856 -0.592,-7.353 0.385,-1.097 -0.704,-5.528 -1.167,-4.465 z m -11.84,-16.015 c -0.496,-0.32 -0.992,-0.608 -1.504,-0.856 0.504,0.255 1.008,0.544 1.504,0.856 z m -6.623,14.431 c 2.783,-0.328 4.735,-3.224 4.359,-6.464 -0.385,-3.248 -2.952,-5.615 -5.736,-5.288 -2.783,0.328 -4.736,3.224 -4.359,6.464 0.374,3.248 2.943,5.609 5.736,5.288 z m -9.489,8.8 c 0,2.232 1.656,4.032 3.703,4.032 2.049,0 3.712,-1.8 3.712,-4.032 0,-2.231 -1.663,-4.031 -3.712,-4.031 -2.046,0 -3.703,1.8 -3.703,4.031 z m 27.952,-7.216 c -0.048,0.096 -0.088,0.192 -0.127,0.288 0.375,1.225 0.695,2.504 0.943,3.816 0.023,0.127 0.047,0.256 0.064,0.384 0.008,0.008 0.008,0.008 0.008,0.017 0.031,0.159 0.056,0.319 0.08,0.472 0.072,-0.168 0.136,-0.336 0.199,-0.513 0.385,-1.096 -0.704,-5.527 -1.167,-4.464 z"
           id="path22" />
        <path
           style="fill:#d8bd8f"
           inkscape:connector-curvature="0"
           d="m 406.82,377.27 c 0.872,-1.728 -0.079,1.896 0,0 z"
           id="path24" />
        <ellipse
           style="fill:#d8bd8f"
           cx="340.20001"
           cy="382.51999"
           rx="26.242001"
           ry="24.627001"
           id="ellipse26" />
        <path
           style="fill:#ffffff"
           inkscape:connector-curvature="0"
           d="m 304.76,365.75 c -5.84,18.264 -20.96,29.751 -33.768,25.655 -12.369,-3.952 -18.057,-20.968 -13.192,-38.56 l 2.008,2.312 0.144,0.168 c -0.071,0.304 -0.144,0.608 -0.199,0.904 -0.008,0.04 -0.016,0.079 -0.024,0.12 0,0 0,0.008 -0.008,0.032 -0.04,0.127 -0.2,0.615 -0.376,1.264 -0.384,1.424 -0.864,3.64 -0.416,4.552 0.008,0.032 0.024,0.064 0.04,0.088 -0.016,-0.023 -0.032,-0.048 -0.04,-0.063 -0.072,-0.097 -0.12,-0.145 -0.16,-0.152 h -0.016 c -0.152,0.024 -0.048,0.832 0.168,1.952 v 0.024 c 0.424,2.184 1.313,5.536 1.729,6.688 0.088,0.231 0.151,0.376 0.191,0.399 16.344,11.185 35.775,4.328 36.455,4.089 0.008,-0.008 0.018,-0.008 0.018,-0.008 0,0 0.047,-0.081 0.143,-0.217 0.84,-1.176 1.633,-2.424 2.354,-3.735 0,-0.008 0.008,-0.016 0.016,-0.024 0.535,-0.968 1.039,-1.968 1.504,-3 2.239,-1.304 4.656,-11.937 3.056,-9.904 0.392,-2.271 0.575,-4.512 0.552,-6.68 -0.072,-10.296 -4.656,-19 -12.561,-21.928 -1.151,-0.425 -2.327,-0.712 -3.52,-0.872 -0.48,-0.064 -0.96,-0.104 -1.439,-0.12 -0.984,-0.04 -1.984,0 -2.992,0.128 -7.32,0.943 -14.696,6.368 -19.656,14.6 -0.064,-0.023 -0.136,-0.056 -0.208,-0.088 -0.136,-0.056 -0.272,-0.111 -0.416,-0.176 -0.056,-0.016 -0.104,-0.04 -0.159,-0.072 -0.201,-0.088 -0.408,-0.176 -0.609,-0.271 -0.191,-0.088 -0.383,-0.177 -0.575,-0.271 -0.009,-0.009 -0.017,-0.017 -0.032,-0.017 -0.008,-0.008 -0.016,-0.016 -0.023,-0.016 -0.209,-0.104 -0.433,-0.209 -0.648,-0.32 7.191,-13.032 19.408,-20.368 30.04,-16.968 12.802,4.094 18.459,22.222 12.619,40.487 z"
           id="path28" />
        <path
           style="fill:#ffffff"
           inkscape:connector-curvature="0"
           d="m 258.93,362.2 c -0.448,-0.912 0.032,-3.128 0.416,-4.552 -0.2,1.231 -0.32,2.448 -0.376,3.64 v 0.008 c -0.016,0.305 -0.032,0.601 -0.04,0.904 z"
           id="path30" />
        <path
           style="fill:#ffffff"
           inkscape:connector-curvature="0"
           d="m 263.65,349.13 -1.465,-0.6 -0.216,-0.088 -2.36,-0.96 c 0.28,-0.712 0.584,-1.408 0.896,-2.088 l 1.84,2.176 v 0.009 l 0.168,0.199 z"
           id="path32" />
        <path
           style="fill:#ffffff"
           inkscape:connector-curvature="0"
           d="m 262.77,342.56 c -0.008,-0.008 -0.016,-0.008 -0.023,-0.008 -0.217,-0.112 -0.424,-0.217 -0.648,-0.328 0.216,0.111 0.439,0.216 0.648,0.32 0.007,0.001 0.015,0.009 0.023,0.016 z"
           id="path34" />
        <path
           style="fill:#ffffff"
           inkscape:connector-curvature="0"
           d="m 283.29,354.29 c 0,2.232 -1.655,4.04 -3.711,4.04 -2.049,0 -3.704,-1.808 -3.704,-4.04 0,-2.224 1.655,-4.031 3.704,-4.031 2.056,0 3.711,1.807 3.711,4.031 z"
           id="path36" />
        <path
           style="fill:#ffffff"
           inkscape:connector-curvature="0"
           d="m 295.93,341.2 c 0,3.271 -2.271,5.92 -5.08,5.92 -2.809,0 -5.08,-2.648 -5.08,-5.92 0,-3.264 2.271,-5.912 5.08,-5.912 2.809,0 5.08,2.648 5.08,5.912 z"
           id="path38" />
        <path
           style="fill:#ffffff"
           inkscape:connector-curvature="0"
           d="m 301.33,368.24 c -0.465,1.032 -0.969,2.032 -1.504,3 -0.008,0.009 -0.016,0.017 -0.016,0.024 -0.721,1.312 -1.514,2.56 -2.354,3.735 -0.096,0.136 -0.143,0.217 -0.143,0.217 0,0 -0.01,0 -0.018,0.008 -0.68,0.239 -20.111,7.096 -36.455,-4.089 -0.04,-0.023 -0.104,-0.168 -0.191,-0.399 -0.416,-1.151 -1.305,-4.504 -1.729,-6.688 v -0.024 c -0.216,-1.12 -0.32,-1.928 -0.168,-1.952 h 0.016 c 0.04,0.008 0.088,0.056 0.16,0.152 0.008,0.016 0.024,0.04 0.04,0.063 v 0.008 c 0.064,0.104 0.136,0.216 0.208,0.32 -0.088,-0.104 -0.168,-0.208 -0.248,-0.32 -0.008,0.225 -0.008,0.448 -0.008,0.672 v 0.024 c 0.512,2.536 1.68,6.712 1.92,6.88 16.344,10.849 35.775,4.2 36.455,3.968 0.008,-0.008 0.018,-0.008 0.018,-0.008 0,0 0.047,-0.079 0.143,-0.216 1.121,-1.52 2.16,-3.176 3.072,-4.928 0.064,-0.12 0.129,-0.248 0.192,-0.377 0.208,-0.407 0.415,-0.823 0.608,-1.247 0.392,-0.84 0.76,-1.712 1.096,-2.601 0.752,-1.976 1.336,-3.96 1.744,-5.92 0.08,-0.368 0.152,-0.728 0.216,-1.096 0.352,-1.969 0.536,-3.912 0.552,-5.792 0.023,2.168 -0.16,4.408 -0.552,6.68 1.602,-2.03 -0.815,8.603 -3.054,9.906 z"
           id="path40" />
        <path
           style="fill:#ffffff"
           inkscape:connector-curvature="0"
           d="m 387.01,378.43 c -11.12,2.439 -22.984,-8.553 -26.496,-24.553 -3.504,-16.008 2.664,-30.951 13.783,-33.392 7,-1.536 14.289,2.248 19.601,9.256 -0.231,0.112 -0.456,0.224 -0.68,0.328 -0.16,0.08 -0.32,0.152 -0.472,0.216 -0.057,0.032 -0.113,0.056 -0.168,0.08 -0.049,0.024 -0.096,0.04 -0.145,0.064 -0.896,-1.145 -1.848,-2.184 -2.855,-3.112 -0.24,-0.224 -0.488,-0.44 -0.736,-0.656 -0.008,0 -0.016,-0.008 -0.023,-0.016 -0.257,-0.224 -0.521,-0.432 -0.785,-0.632 -0.304,-0.24 -0.615,-0.464 -0.928,-0.681 -0.224,-0.151 -0.447,-0.296 -0.672,-0.439 -0.496,-0.32 -0.992,-0.608 -1.504,-0.856 -0.328,-0.176 -0.656,-0.328 -0.992,-0.472 -0.279,-0.12 -0.568,-0.232 -0.848,-0.336 -0.281,-0.104 -0.564,-0.194 -0.849,-0.28 -0.411,-0.119 -0.824,-0.235 -1.239,-0.32 -0.12,-0.031 -0.248,-0.056 -0.369,-0.079 h -0.016 c -0.176,-0.032 -0.352,-0.064 -0.527,-0.089 -0.168,-0.023 -0.328,-0.047 -0.488,-0.063 -0.287,-0.032 -0.584,-0.057 -0.88,-0.064 -0.192,-0.008 -0.392,-0.016 -0.585,-0.016 -0.399,0 -0.799,0.016 -1.207,0.056 -0.313,0.032 -0.633,0.072 -0.943,0.128 -0.018,0 -0.033,0 -0.049,0.008 -0.072,0.009 -0.145,0.017 -0.216,0.032 -0.528,0.096 -1.04,0.225 -1.552,0.385 0,0 -0.008,0.008 -0.016,0.008 -0.249,0.08 -0.496,0.168 -0.744,0.264 -1.256,0.472 -2.424,1.136 -3.513,1.968 -0.097,0.072 -0.192,0.144 -0.28,0.232 -0.207,0.152 -0.407,0.32 -0.6,0.504 -0.256,0.216 -0.504,0.456 -0.752,0.704 -0.248,0.24 -0.488,0.496 -0.712,0.76 -0.192,0.208 -0.376,0.424 -0.552,0.648 -0.201,0.248 -0.385,0.495 -0.576,0.752 -0.024,0.031 -0.048,0.071 -0.072,0.104 -0.207,0.288 -0.408,0.584 -0.607,0.889 0,0 -0.009,0.008 -0.009,0.016 -0.191,0.296 -0.376,0.6 -0.544,0.912 -0.016,0.016 -0.031,0.032 -0.031,0.048 -0.184,0.32 -0.361,0.64 -0.529,0.976 -0.135,0.272 -0.271,0.553 -0.399,0.832 -0.087,0.177 -0.168,0.36 -0.239,0.545 -0.176,0.383 -0.336,0.783 -0.48,1.184 -0.049,0.12 -0.088,0.248 -0.136,0.367 -0.089,0.232 -0.168,0.457 -0.241,0.696 -0.087,0.24 -0.158,0.488 -0.231,0.744 0,0 -0.008,0.009 -0.008,0.017 -0.097,0.312 -0.176,0.624 -0.265,0.943 -0.087,0.32 -0.168,0.648 -0.239,0.977 -0.063,0.271 -0.128,0.552 -0.176,0.84 -0.081,0.376 -0.152,0.76 -0.208,1.151 -0.072,0.425 -0.136,0.849 -0.184,1.28 -0.072,0.568 -0.129,1.145 -0.16,1.72 -0.016,0.249 -0.033,0.496 -0.049,0.753 -0.016,0.247 -0.016,0.496 -0.023,0.751 -0.016,0.257 -0.016,0.505 -0.016,0.761 0,0.023 -0.009,0.048 0,0.071 -0.009,0.009 0,0.009 0,0.017 -0.009,0.04 -0.009,0.08 -0.009,0.111 v 0.081 c 0,0.336 0.009,0.672 0.017,1.008 0.008,0.424 0.023,0.856 0.057,1.288 0.031,0.607 0.087,1.216 0.15,1.823 0.049,0.448 0.104,0.896 0.176,1.345 0,0.023 0,0.04 0.01,0.056 0.063,0.496 0.15,0.984 0.239,1.48 0.024,0.151 0.056,0.296 0.087,0.439 -0.479,-0.271 -0.743,-0.439 -0.743,-0.439 l 1.688,6.224 c 0,0 2.304,6.096 3.951,7.392 0.281,0.217 0.568,0.425 0.881,0.632 7.393,4.801 23.623,4.84 31.647,-13.367 0.104,-0.232 0.208,-0.465 0.304,-0.704 0.625,-1.479 -0.047,-8.856 -0.592,-7.353 0.385,-1.096 -0.704,-5.527 -1.168,-4.464 -0.048,0.096 -0.088,0.192 -0.127,0.288 -0.033,0.08 -0.072,0.16 -0.104,0.232 -0.288,-0.944 -0.608,-1.856 -0.952,-2.744 l 0.128,-0.145 v -0.008 l 1.071,-1.225 c 1.049,2.409 1.896,5 2.496,7.737 3.511,15.998 -2.665,30.949 -13.776,33.382 z"
           id="path42" />
        <path
           style="fill:#ffffff"
           inkscape:connector-curvature="0"
           d="m 377.73,348.12 c 0,2.232 -1.663,4.032 -3.712,4.032 -2.047,0 -3.703,-1.8 -3.703,-4.032 0,-2.231 1.656,-4.031 3.703,-4.031 2.049,0 3.712,1.8 3.712,4.031 z"
           id="path44" />
        <path
           style="fill:#ffffff"
           inkscape:connector-curvature="0"
           d="m 379.81,339.32 c -2.793,0.32 -5.361,-2.04 -5.736,-5.288 -0.377,-3.24 1.576,-6.136 4.359,-6.464 2.784,-0.327 5.352,2.04 5.736,5.288 0.376,3.241 -1.576,6.136 -4.359,6.464 z"
           id="path46" />
        <path
           style="fill:#ffffff"
           inkscape:connector-curvature="0"
           d="m 386.43,324.89 c -0.496,-0.312 -1,-0.601 -1.504,-0.856 0.511,0.247 1.008,0.535 1.504,0.856 z"
           id="path48" />
        <path
           style="fill:#ffffff"
           inkscape:connector-curvature="0"
           d="m 396.49,333.69 -1.32,0.544 -0.16,0.063 -2.088,0.848 1.52,-1.808 0.12,-0.144 0.952,-1.128 c 0.336,0.529 0.664,1.064 0.976,1.625 z"
           id="path50" />
        <path
           style="fill:#ffffff"
           inkscape:connector-curvature="0"
           d="m 400.03,352.73 c -0.096,0.239 -0.199,0.472 -0.304,0.704 -8.024,18.207 -24.255,18.168 -31.647,13.367 -0.313,-0.207 -0.6,-0.415 -0.881,-0.632 -1.647,-1.296 -3.951,-7.392 -3.951,-7.392 l -1.688,-6.224 c 0,0 0.265,0.168 0.743,0.439 -0.031,-0.144 -0.063,-0.288 -0.087,-0.439 -0.089,-0.496 -0.176,-0.984 -0.239,-1.48 -0.01,-0.016 -0.01,-0.032 -0.01,-0.056 -0.071,-0.448 -0.127,-0.896 -0.176,-1.345 -0.063,-0.607 -0.119,-1.216 -0.15,-1.823 -0.025,-0.432 -0.049,-0.864 -0.057,-1.288 -0.008,-0.336 -0.017,-0.672 -0.017,-1.008 v -0.081 c 0,-0.031 0,-0.071 0.009,-0.111 v 0.368 c 0.047,1.928 0.256,3.911 0.64,5.92 0.024,0.144 0.056,0.288 0.087,0.424 0.073,0.353 0.145,0.704 0.241,1.056 0.376,1.68 0.88,3.305 1.479,4.84 0,0.017 0.008,0.032 0.017,0.049 0.159,0.416 0.327,0.832 0.504,1.232 0.016,0.031 0.032,0.063 0.048,0.095 0.976,2.249 2.152,4.296 3.488,6.128 7.393,4.656 23.623,4.696 31.647,-12.968 0.048,-2.144 -0.112,-4.352 -0.487,-6.6 v -0.016 c -0.024,-0.152 -0.049,-0.313 -0.08,-0.472 0,-0.009 0,-0.009 -0.008,-0.017 -0.018,-0.128 -0.041,-0.257 -0.064,-0.384 -0.248,-1.313 -0.568,-2.592 -0.943,-3.816 0.039,-0.096 0.079,-0.192 0.127,-0.288 0.464,-1.063 1.553,3.368 1.168,4.464 0.544,-1.503 1.216,5.874 0.591,7.354 z"
           id="path52" />
        <path
           style="fill:#010101"
           inkscape:connector-curvature="0"
           d="m 318.38,387.42 c 10.706,11.608 21.839,2.405 21.839,2.405 0,0 15.108,10.195 20.864,-7.306 0.164,-0.498 -9.633,14.853 -18.876,3.497 -1.597,-1.962 1.023,-9.957 1.023,-9.957 h -3.034 c 0,0 0.597,7.368 -0.766,9.355 -7.417,10.826 -21.593,1.416 -21.05,2.006 z"
           id="path54" />
        <path
           style="fill:#010101;stroke:#010101;stroke-width:0.89590001;stroke-miterlimit:10"
           inkscape:connector-curvature="0"
           d="m 258.97,362.29 c 0.064,0.104 0.136,0.216 0.208,0.32 -0.088,-0.104 -0.168,-0.208 -0.248,-0.32 v -0.096 c 0.008,0.032 0.024,0.064 0.04,0.088 z"
           stroke-miterlimit="10"
           id="path56" />
        <path
           style="fill:#010101;stroke:#010101;stroke-width:0.89590001;stroke-miterlimit:10"
           inkscape:connector-curvature="0"
           d="m 292.37,329.73 c -1.151,-0.425 -2.327,-0.712 -3.52,-0.872 -0.48,-0.057 -0.96,-0.096 -1.439,-0.12 -0.984,-0.04 -1.984,0 -2.992,0.128 -7.32,0.943 -14.696,6.368 -19.656,14.6 -0.064,-0.023 -0.136,-0.056 -0.208,-0.088 -0.136,-0.048 -0.272,-0.111 -0.416,-0.176 -0.056,-0.016 -0.104,-0.04 -0.159,-0.072 -0.201,-0.079 -0.4,-0.176 -0.609,-0.271 -0.191,-0.088 -0.383,-0.177 -0.575,-0.271 -0.009,-0.009 -0.017,-0.017 -0.032,-0.017 -0.008,-0.008 -0.016,-0.008 -0.023,-0.008 -0.217,-0.112 -0.424,-0.217 -0.648,-0.328 -3.776,-1.88 -8.072,-4.528 -8.072,-4.528 l 6.48,7.696 1.84,2.176 v 0.009 l 0.168,0.199 1.137,1.352 -1.465,-0.6 -0.216,-0.088 -2.36,-0.96 -9.992,-4.063 8.184,9.424 2.008,2.312 0.144,0.168 c -0.071,0.304 -0.144,0.608 -0.199,0.904 7.695,9.96 31.951,14.464 44.416,2.312 0.08,-0.368 0.152,-0.728 0.216,-1.096 0.352,-1.969 0.536,-3.912 0.552,-5.792 -0.076,-10.299 -4.66,-19.003 -12.564,-21.93 z m -12.791,28.607 c -2.049,0 -3.704,-1.808 -3.704,-4.04 0,-2.224 1.655,-4.031 3.704,-4.031 2.056,0 3.711,1.808 3.711,4.031 0,2.232 -1.655,4.04 -3.711,4.04 z m 11.264,-11.208 c -2.809,0 -5.08,-2.648 -5.08,-5.92 0,-3.264 2.271,-5.912 5.08,-5.912 2.809,0 5.08,2.648 5.08,5.912 0,3.272 -2.272,5.92 -5.08,5.92 z"
           stroke-miterlimit="10"
           id="path58" />
        <path
           style="fill:#010101;stroke:#010101;stroke-width:0.89590001;stroke-miterlimit:10"
           inkscape:connector-curvature="0"
           d="m 259.95,355.32 c -0.071,0.304 -0.144,0.608 -0.199,0.904 -0.008,0.04 -0.016,0.079 -0.024,0.12 0,0 0,0.008 -0.008,0.032 -0.04,0.127 -0.2,0.615 -0.376,1.264 0.072,-0.528 0.168,-1.056 0.279,-1.592 0.025,-0.168 0.064,-0.328 0.097,-0.496 0.008,-0.024 0.008,-0.032 0.008,-0.032 0.024,-0.12 0.048,-0.248 0.08,-0.368 z"
           stroke-miterlimit="10"
           id="path60" />
        <path
           style="fill:#010101;stroke:#010101;stroke-width:0.89590001;stroke-miterlimit:10"
           inkscape:connector-curvature="0"
           d="m 263.65,349.13 -1.465,-0.6 -0.216,-0.088 c 0.071,-0.168 0.144,-0.336 0.216,-0.504 0.049,-0.12 0.104,-0.24 0.16,-0.359 l 0.168,0.199 z"
           stroke-miterlimit="10"
           id="path62" />
        <path
           style="fill:#010101;stroke:#010101;stroke-width:0.89590001;stroke-miterlimit:10"
           inkscape:connector-curvature="0"
           d="m 284.42,328.86 c -7.32,0.943 -14.696,6.368 -19.656,14.6 -0.064,-0.023 -0.136,-0.056 -0.208,-0.088 0.063,-0.119 0.136,-0.24 0.208,-0.352 4.96,-7.992 12.336,-13.248 19.656,-14.16 z"
           stroke-miterlimit="10"
           id="path64" />
        <path
           style="fill:#010101;stroke:#010101;stroke-width:0.89590001;stroke-miterlimit:10"
           inkscape:connector-curvature="0"
           d="m 283.29,354.29 c 0,2.232 -1.655,4.04 -3.711,4.04 -2.049,0 -3.704,-1.808 -3.704,-4.04 0,-2.224 1.655,-4.031 3.704,-4.031 2.056,0 3.711,1.807 3.711,4.031 z"
           stroke-miterlimit="10"
           id="path66" />
        <path
           style="fill:#010101;stroke:#010101;stroke-width:0.89590001;stroke-miterlimit:10"
           inkscape:connector-curvature="0"
           d="m 295.93,341.2 c 0,3.271 -2.271,5.92 -5.08,5.92 -2.809,0 -5.08,-2.648 -5.08,-5.92 0,-3.264 2.271,-5.912 5.08,-5.912 2.809,0 5.08,2.648 5.08,5.912 z"
           stroke-miterlimit="10"
           id="path68" />
        <path
           style="fill:#010101;stroke:#010101;stroke-width:0.89590001;stroke-miterlimit:10"
           inkscape:connector-curvature="0"
           d="m 304.94,351.65 c -0.072,-10.296 -4.656,-19 -12.561,-21.928 -1.151,-0.425 -2.327,-0.712 -3.52,-0.872 1.192,0.144 2.368,0.424 3.52,0.84 8.088,2.905 12.697,11.672 12.561,21.96 z"
           stroke-miterlimit="10"
           id="path70" />
        <path
           style="fill:#010101;stroke:#010101;stroke-width:1.00650001;stroke-miterlimit:10"
           inkscape:connector-curvature="0"
           d="m 397.22,338.53 1.071,-1.225 4.152,-4.783 c -0.088,-0.385 -0.184,-0.768 -0.287,-1.152 l -5.664,2.313 -1.32,0.544 -0.16,0.063 -2.088,0.848 1.52,-1.808 0.12,-0.144 0.952,-1.128 5.096,-6.057 c -0.216,0.128 -3.728,2.28 -6.712,3.736 -0.231,0.112 -0.456,0.224 -0.68,0.328 -0.16,0.08 -0.32,0.152 -0.472,0.216 -0.057,0.032 -0.113,0.056 -0.168,0.08 -0.049,0.024 -0.096,0.04 -0.145,0.064 -0.896,-1.145 -1.848,-2.184 -2.855,-3.112 -0.24,-0.224 -0.488,-0.44 -0.736,-0.656 -0.008,0 -0.016,-0.008 -0.023,-0.016 -0.257,-0.216 -0.521,-0.432 -0.785,-0.632 -0.304,-0.24 -0.615,-0.464 -0.928,-0.681 -0.224,-0.151 -0.447,-0.296 -0.672,-0.439 -0.496,-0.312 -1,-0.601 -1.504,-0.856 -0.328,-0.176 -0.656,-0.328 -0.992,-0.472 -0.279,-0.12 -0.568,-0.232 -0.848,-0.336 -0.688,-0.257 -1.385,-0.456 -2.088,-0.601 -0.12,-0.031 -0.248,-0.056 -0.369,-0.079 h -0.016 c -0.176,-0.032 -0.352,-0.064 -0.527,-0.089 -0.168,-0.023 -0.328,-0.047 -0.488,-0.063 -0.287,-0.032 -0.584,-0.057 -0.88,-0.064 -0.192,-0.008 -0.392,-0.016 -0.585,-0.016 -0.399,0 -0.799,0.016 -1.207,0.056 -0.313,0.032 -0.633,0.072 -0.943,0.128 -0.018,0 -0.033,0 -0.049,0.008 -0.072,0.009 -0.145,0.017 -0.216,0.032 -0.528,0.096 -1.04,0.225 -1.552,0.385 0,0 -0.008,0.008 -0.016,0.008 -0.249,0.08 -0.496,0.168 -0.744,0.264 -1.256,0.472 -2.424,1.136 -3.513,1.968 -0.097,0.072 -0.192,0.144 -0.28,0.232 -0.207,0.16 -0.407,0.328 -0.6,0.504 -0.256,0.224 -0.504,0.456 -0.752,0.704 -0.24,0.248 -0.48,0.496 -0.712,0.76 -0.192,0.208 -0.376,0.424 -0.552,0.648 -0.201,0.248 -0.385,0.495 -0.576,0.752 -0.024,0.031 -0.048,0.071 -0.072,0.104 -0.207,0.288 -0.408,0.584 -0.607,0.889 0,0 -0.009,0.008 -0.009,0.016 -0.191,0.296 -0.376,0.6 -0.544,0.912 -0.016,0.016 -0.031,0.032 -0.031,0.048 -0.184,0.32 -0.361,0.64 -0.529,0.976 -0.135,0.272 -0.271,0.553 -0.399,0.832 -0.087,0.177 -0.168,0.36 -0.239,0.545 -0.176,0.383 -0.336,0.783 -0.48,1.184 -0.049,0.12 -0.088,0.248 -0.136,0.367 -0.089,0.232 -0.168,0.457 -0.241,0.696 -0.087,0.24 -0.158,0.488 -0.231,0.744 0,0 -0.008,0.009 -0.008,0.017 -0.097,0.312 -0.176,0.624 -0.265,0.943 -0.087,0.32 -0.168,0.648 -0.239,0.977 -0.063,0.271 -0.12,0.552 -0.176,0.84 -0.081,0.376 -0.152,0.76 -0.208,1.151 -0.072,0.425 -0.128,0.849 -0.184,1.28 -0.072,0.568 -0.129,1.145 -0.16,1.72 -0.016,0.249 -0.033,0.496 -0.049,0.753 -0.016,0.247 -0.016,0.496 -0.023,0.751 -0.016,0.257 -0.016,0.505 -0.016,0.761 0,0.023 -0.009,0.048 0,0.071 -0.009,0.009 0,0.009 0,0.017 v 0.368 c 0.047,1.928 0.256,3.911 0.64,5.92 0.024,0.144 0.056,0.288 0.087,0.424 0.073,0.353 0.145,0.704 0.241,1.056 4.655,2.576 24.832,11.961 35.496,-11.695 -0.288,-0.944 -0.608,-1.856 -0.952,-2.744 l 0.128,-0.145 v -0.01 z m -23.193,13.624 c -2.047,0 -3.703,-1.8 -3.703,-4.032 0,-2.231 1.656,-4.031 3.703,-4.031 2.049,0 3.712,1.8 3.712,4.031 0,2.232 -1.663,4.032 -3.712,4.032 z m 5.786,-12.832 c -2.793,0.32 -5.361,-2.04 -5.736,-5.288 -0.377,-3.24 1.576,-6.136 4.359,-6.464 2.784,-0.327 5.352,2.04 5.736,5.288 0.376,3.241 -1.576,6.136 -4.359,6.464 z"
           stroke-miterlimit="10"
           id="path72" />
        <path
           style="fill:#010101;stroke:#010101;stroke-width:1.00650001;stroke-miterlimit:10"
           inkscape:connector-curvature="0"
           d="m 375.94,322.51 c -0.072,0.009 -0.145,0.017 -0.216,0.032 -0.528,0.096 -1.04,0.225 -1.552,0.385 0,0 -0.008,0.008 -0.016,0.008 -0.249,0.08 -0.496,0.168 -0.744,0.264 -1.256,0.472 -2.424,1.136 -3.513,1.968 -0.097,0.072 -0.192,0.144 -0.28,0.232 -0.207,0.16 -0.407,0.328 -0.6,0.504 -0.256,0.216 -0.504,0.456 -0.752,0.704 -0.24,0.248 -0.48,0.496 -0.712,0.76 -0.192,0.208 -0.376,0.424 -0.552,0.648 -0.201,0.248 -0.385,0.495 -0.576,0.752 -0.024,0.031 -0.048,0.071 -0.072,0.104 -0.207,0.288 -0.408,0.584 -0.607,0.889 0,0 -0.009,0.008 -0.009,0.016 -0.191,0.296 -0.376,0.6 -0.544,0.912 -0.016,0.016 -0.031,0.032 -0.031,0.048 -0.184,0.32 -0.361,0.64 -0.529,0.976 -0.135,0.272 -0.271,0.553 -0.399,0.832 -0.087,0.177 -0.168,0.36 -0.239,0.545 -0.176,0.383 -0.336,0.783 -0.48,1.184 -0.049,0.12 -0.088,0.248 -0.136,0.367 -0.089,0.232 -0.168,0.457 -0.241,0.696 -0.087,0.24 -0.158,0.488 -0.231,0.744 0,0 -0.008,0.009 -0.008,0.017 -0.097,0.312 -0.176,0.624 -0.265,0.943 -0.087,0.32 -0.168,0.648 -0.239,0.977 -0.063,0.271 -0.12,0.552 -0.176,0.84 -0.081,0.376 -0.152,0.76 -0.208,1.151 -0.072,0.425 -0.128,0.849 -0.184,1.28 -0.072,0.568 -0.129,1.145 -0.16,1.72 -0.016,0.249 -0.033,0.496 -0.049,0.753 -0.016,0.247 -0.016,0.496 -0.023,0.751 -0.016,0.257 -0.016,0.505 -0.016,0.761 -0.145,-11.576 5.512,-21.184 14.144,-22.736 0.07,-0.018 0.142,-0.027 0.215,-0.027 z"
           stroke-miterlimit="10"
           id="path74" />
        <path
           style="fill:#010101;stroke:#010101;stroke-width:1.00650001;stroke-miterlimit:10"
           inkscape:connector-curvature="0"
           d="m 377.73,348.12 c 0,2.232 -1.663,4.032 -3.712,4.032 -2.047,0 -3.703,-1.8 -3.703,-4.032 0,-2.231 1.656,-4.031 3.703,-4.031 2.049,0 3.712,1.8 3.712,4.031 z"
           stroke-miterlimit="10"
           id="path76" />
        <path
           style="fill:#010101;stroke:#010101;stroke-width:1.00650001;stroke-miterlimit:10"
           inkscape:connector-curvature="0"
           d="m 380.09,322.46 c -0.168,-0.023 -0.328,-0.047 -0.488,-0.063 0.136,0.008 0.272,0.024 0.408,0.048 0.023,-10e-4 0.056,0.007 0.08,0.015 z"
           stroke-miterlimit="10"
           id="path78" />
        <path
           style="fill:#010101;stroke:#010101;stroke-width:1.00650001;stroke-miterlimit:10"
           inkscape:connector-curvature="0"
           d="m 379.81,339.32 c -2.793,0.32 -5.361,-2.04 -5.736,-5.288 -0.377,-3.24 1.576,-6.136 4.359,-6.464 2.784,-0.327 5.352,2.04 5.736,5.288 0.376,3.241 -1.576,6.136 -4.359,6.464 z"
           stroke-miterlimit="10"
           id="path80" />
        <path
           style="fill:#010101;stroke:#010101;stroke-width:1.00650001;stroke-miterlimit:10"
           inkscape:connector-curvature="0"
           d="m 381,322.63 c 0.416,0.086 0.828,0.196 1.239,0.32 -0.411,-0.119 -0.824,-0.235 -1.239,-0.32 z"
           stroke-miterlimit="10"
           id="path82" />
        <path
           style="fill:#010101;stroke:#010101;stroke-width:1.00650001;stroke-miterlimit:10"
           inkscape:connector-curvature="0"
           d="m 392.58,330.36 c -0.049,0.024 -0.096,0.04 -0.145,0.064 -0.896,-1.145 -1.848,-2.184 -2.855,-3.112 -0.24,-0.224 -0.488,-0.44 -0.736,-0.656 -0.008,0 -0.016,-0.008 -0.023,-0.016 -0.257,-0.224 -0.521,-0.432 -0.785,-0.632 -0.304,-0.24 -0.615,-0.464 -0.928,-0.681 -0.224,-0.151 -0.447,-0.296 -0.672,-0.439 -0.496,-0.312 -1,-0.601 -1.504,-0.856 -0.328,-0.176 -0.656,-0.328 -0.992,-0.472 -0.279,-0.12 -0.568,-0.232 -0.848,-0.336 -0.281,-0.104 -0.564,-0.194 -0.849,-0.28 3.739,1.091 7.288,3.629 10.192,7.232 0.049,0.065 0.096,0.12 0.145,0.184 z"
           stroke-miterlimit="10"
           id="path84" />
        <path
           style="fill:#010101;stroke:#010101;stroke-width:1.00650001;stroke-miterlimit:10"
           inkscape:connector-curvature="0"
           d="m 395.17,334.23 -0.16,0.063 -2.088,0.848 1.52,-1.808 0.12,-0.144 c 0.152,0.24 0.304,0.487 0.448,0.744 0.056,0.097 0.111,0.193 0.16,0.297 z"
           stroke-miterlimit="10"
           id="path86" />
        <path
           style="fill:#010101;stroke:#010101;stroke-width:1.00650001;stroke-miterlimit:10"
           inkscape:connector-curvature="0"
           d="m 398.14,341.2 c -0.033,0.08 -0.072,0.16 -0.104,0.232 -0.288,-0.944 -0.608,-1.856 -0.952,-2.744 l 0.128,-0.145 c 0.296,0.744 0.575,1.521 0.824,2.313 0.031,0.112 0.07,0.224 0.104,0.344 z"
           stroke-miterlimit="10"
           id="path88" />
        <path
           style="fill:#010101"
           inkscape:connector-curvature="0"
           d="m 262.74,342.55 v 0.008 c -0.217,-0.112 -0.424,-0.217 -0.648,-0.328 0.216,0.111 0.439,0.215 0.648,0.32 z"
           id="path90" />
        <path
           style="fill:#010101"
           inkscape:connector-curvature="0"
           d="m 262.1,342.23 c 0.093,0.048 0.187,0.095 0.28,0.14 -0.092,-0.046 -0.185,-0.092 -0.28,-0.14 z m 0.28,0.14 c 0.123,0.063 0.244,0.124 0.368,0.188 v -0.008 c -0.119,-0.059 -0.243,-0.118 -0.368,-0.18 z"
           id="path92" />
        <g
           style="fill:#010101"
           id="g98">
          <path
             inkscape:connector-curvature="0"
             d="m 404.14,330.56 -1.705,1.96 c -0.088,-0.385 -0.184,-0.768 -0.287,-1.152 z"
             id="path94" />
          <path
             inkscape:connector-curvature="0"
             d="m 404.14,330.56 -1.992,0.808 c 0.104,0.385 0.199,0.768 0.287,1.152 z"
             id="path96" />
        </g>
        <path
           style="fill:#814734"
           inkscape:connector-curvature="0"
           d="m 339.93,252.28 6.119,-6.424 c 0,0 4.305,-5.328 10.528,-13.295 6.097,-7.809 14.04,-18.16 21.577,-28.528 10.543,8.68 20.047,13.232 27.711,15.56 11.969,3.641 19.465,1.848 19.465,1.848 0,0 18.336,-21.36 -17.232,-63.192 -0.729,-0.848 -1.473,-1.712 -2.248,-2.584 -6.145,-6.936 -13.535,-22.315 -29.553,-23.224 -9.169,-0.52 -18.668,3.396 -24.096,12.8 -2.889,4.896 -5.791,10.424 -8.672,16.664 -0.527,1.136 -1.055,2.304 -1.584,3.488 -8.36,18.88 -16.561,43.88 -23.88,76.952 -1.463,6.607 21.865,9.935 21.865,9.935 z"
           id="path100" />
        <path
           style="fill:#814734"
           inkscape:connector-curvature="0"
           d="m 341.08,468.11 c -11.941,8.026 -24.172,41.459 -18.267,54.581 3.856,8.573 26.375,11.219 35.769,11.612 6.364,0.267 21.615,-0.296 24.811,-5.807 11.107,-19.161 -16.457,-55.813 -21.029,-60.387 -3.764,-3.76 -16.868,-2.967 -21.284,0.001 z"
           id="path102" />
        <path
           style="fill:#814734"
           inkscape:connector-curvature="0"
           d="m 227.92,420.87 c -80,-28.64 -35.484,56.607 -35.484,56.607 0,0 -45.807,-2.58 -32.258,21.08 1.846,3.223 8.7,7.328 12.258,8.392 6.849,2.048 21.346,4.668 28.387,3.433 7.28,-1.277 21.917,-6.551 27.097,-11.824 2.241,-2.283 -3.226,-19.144 -3.226,-19.144 0,0 7.249,-57.103 3.226,-58.544 z"
           id="path104" />
        <path
           style="fill:#d8bd8f"
           inkscape:connector-curvature="0"
           d="m 170.63,485.56 c 20.114,-9.534 18.808,9.796 18.808,9.796 0,0 19.33,-10.841 20.505,10.188 0.02,0.35 0,1.4 0,1.4 v 0.967 c 0,0 -20.48,11.072 -46.063,-4.394 -6.207,-3.753 -13.477,-18.098 2.232,-22.784 1.584,-0.472 3.024,5.535 4.518,4.827 z"
           id="path106" />
        <ellipse
           style="fill:#d8bd8f"
           cx="311.41"
           cy="469.31"
           rx="31.822001"
           ry="37.639"
           id="ellipse108" />
        <path
           style="fill:#80c342"
           inkscape:connector-curvature="0"
           d="m 299.82,371.24 c -0.008,0.009 -0.016,0.017 -0.016,0.024 -0.913,1.344 -1.984,2.735 -2.601,3.296 -0.097,0.136 -0.145,0.216 -0.145,0.216 0,0 -0.008,0 -0.016,0.016 -0.681,0.24 -20.376,7.512 -36.399,-4.056 -0.017,-0.016 -0.041,-0.024 -0.057,-0.04 -1.92,-1.385 -2.576,-9.8 -2.16,-9.128 0.056,0.088 0.112,0.185 0.176,0.271 0.048,0.081 0.104,0.152 0.152,0.232 h 0.008 c 0.008,0.017 0.024,0.04 0.032,0.056 0.04,0.057 0.088,0.112 0.128,0.168 -0.008,0.225 -0.008,0.448 -0.008,0.672 v 0.024 c 0.512,2.536 1.68,6.712 1.92,6.88 16.344,10.849 35.775,4.2 36.455,3.968 0.008,-0.008 0.018,-0.008 0.018,-0.008 0,0 0.047,-0.079 0.143,-0.216 1.121,-1.52 2.16,-3.176 3.072,-4.928 0.064,-0.12 0.129,-0.248 0.192,-0.377 0.312,-0.039 0.593,-0.071 0.608,-0.071 0.498,-0.222 -0.383,1.337 -1.502,3.001 z"
           id="path110" />
        <path
           style="fill:#80c342"
           inkscape:connector-curvature="0"
           d="m 304.17,358.54 c -0.408,1.96 -0.992,3.944 -1.744,5.92 -0.336,0.889 -0.704,1.761 -1.096,2.601 -0.193,0.424 -0.4,0.84 -0.608,1.247 -0.063,0.129 -0.128,0.257 -0.192,0.377 -0.912,1.752 -1.951,3.408 -3.072,4.928 -0.096,0.137 -0.143,0.216 -0.143,0.216 0,0 -0.01,0 -0.018,0.008 -0.68,0.232 -20.111,6.881 -36.455,-3.968 -0.24,-0.168 -1.408,-4.344 -1.92,-6.88 v -0.024 c 0,-0.224 0,-0.447 0.008,-0.672 0.08,0.112 0.16,0.216 0.248,0.32 -0.072,-0.104 -0.144,-0.216 -0.208,-0.32 v -0.008 c -0.016,-0.023 -0.032,-0.056 -0.04,-0.088 0.008,-0.304 0.024,-0.6 0.04,-0.904 v -0.008 c 0.056,-1.191 0.176,-2.408 0.376,-3.64 0.176,-0.648 0.336,-1.137 0.376,-1.264 0.008,-0.024 0.008,-0.032 0.008,-0.032 0.009,-0.041 0.017,-0.08 0.024,-0.12 7.695,9.959 31.951,14.463 44.416,2.311 z"
           id="path112" />
        <path
           style="fill:#80c342"
           inkscape:connector-curvature="0"
           d="m 259.62,356.05 c 0.041,0.063 0.088,0.119 0.129,0.176 -0.008,0.04 -0.016,0.079 -0.024,0.12 0,0 0,0.008 -0.008,0.032 -0.04,0.127 -0.2,0.615 -0.376,1.264 -0.2,1.231 -0.32,2.448 -0.376,3.64 v 0.008 c -0.016,0.305 -0.032,0.601 -0.04,0.904 0.008,0.032 0.024,0.064 0.04,0.088 l -0.04,-0.031 -0.128,-0.129 -0.048,-0.056 -0.072,-0.072 c -0.032,-0.048 -0.056,-0.104 -0.072,-0.16 -0.576,-1.464 0.568,-6.407 0.721,-6.191 0.095,0.134 0.191,0.271 0.294,0.407 z"
           id="path114" />
        <path
           style="fill:#80c342"
           inkscape:connector-curvature="0"
           d="m 301.33,368.24 c -0.201,0.216 -0.496,0.336 -0.801,0.448 0.064,-0.12 0.129,-0.248 0.192,-0.377 0.208,-0.407 0.415,-0.823 0.608,-1.247 0.392,-0.84 0.76,-1.712 1.096,-2.601 0.752,-1.976 1.336,-3.96 1.744,-5.92 0.072,-0.064 0.145,-0.136 0.216,-0.208 1.033,-1.031 -2.167,8.953 -3.055,9.905 z"
           id="path116" />
        <path
           style="fill:#ffffff"
           inkscape:connector-curvature="0"
           d="m 295.93,341.2 c 0,3.271 -2.271,5.92 -5.08,5.92 -2.809,0 -5.08,-2.648 -5.08,-5.92 0,-3.264 2.271,-5.912 5.08,-5.912 2.809,0 5.08,2.648 5.08,5.912 z"
           id="path118" />
        <path
           style="fill:#ffffff"
           inkscape:connector-curvature="0"
           d="m 283.29,354.29 c 0,2.232 -1.655,4.04 -3.711,4.04 -2.049,0 -3.704,-1.808 -3.704,-4.04 0,-2.224 1.655,-4.031 3.704,-4.031 2.056,0 3.711,1.807 3.711,4.031 z"
           id="path120" />
        <path
           style="fill:#80c342"
           inkscape:connector-curvature="0"
           d="m 364.54,359.25 c 0.016,0.031 0.032,0.063 0.048,0.095 -0.208,-0.079 -0.393,-0.159 -0.552,-0.224 -0.272,-0.112 -0.473,-0.199 -0.608,-0.264 -0.048,-0.024 -0.08,-0.04 -0.111,-0.049 -0.049,-0.023 -0.072,-0.031 -0.072,-0.031 l -1.688,-6.224 c 0,0 0.265,0.168 0.743,0.439 0.073,0.04 0.152,0.088 0.241,0.136 0.376,1.68 0.88,3.305 1.479,4.84 0,0.017 0.008,0.032 0.017,0.049 0.158,0.417 0.326,0.833 0.503,1.233 z"
           id="path122" />
        <path
           style="fill:#80c342"
           inkscape:connector-curvature="0"
           d="m 399.44,345.37 c -0.063,0.177 -0.127,0.353 -0.199,0.528 v -0.016 c -0.024,-0.152 -0.049,-0.313 -0.08,-0.472 0,-0.009 0,-0.009 -0.008,-0.017 -0.018,-0.128 -0.041,-0.257 -0.064,-0.384 -0.248,-1.313 -0.568,-2.592 -0.943,-3.816 0.039,-0.096 0.079,-0.192 0.127,-0.288 0.463,-1.062 1.552,3.369 1.167,4.465 z"
           id="path124" />
        <path
           style="fill:#80c342"
           inkscape:connector-curvature="0"
           d="m 399.73,352.5 c -8.024,17.664 -24.255,17.624 -31.647,12.968 -1.336,-1.832 -2.513,-3.879 -3.488,-6.128 -0.016,-0.032 -0.032,-0.063 -0.048,-0.095 -0.177,-0.4 -0.345,-0.816 -0.504,-1.232 -0.009,-0.017 -0.017,-0.032 -0.017,-0.049 -0.6,-1.535 -1.104,-3.16 -1.479,-4.84 4.655,2.576 24.832,11.961 35.496,-11.695 0.032,-0.072 0.071,-0.152 0.104,-0.232 0.375,1.225 0.695,2.504 0.943,3.816 0.023,0.127 0.047,0.256 0.064,0.384 0.008,0.008 0.008,0.008 0.008,0.017 0.031,0.159 0.056,0.319 0.08,0.472 v 0.016 c 0.375,2.246 0.535,4.454 0.488,6.598 z"
           id="path126" />
        <path
           style="fill:#80c342"
           inkscape:connector-curvature="0"
           d="m 400.03,352.73 c -0.096,0.239 -0.199,0.472 -0.304,0.704 -8.024,18.207 -24.255,18.168 -31.647,13.367 -0.313,-0.207 -0.6,-0.415 -0.881,-0.632 -1.647,-1.296 -3.951,-7.392 -3.951,-7.392 0,0 0.023,0.008 0.072,0.031 0.031,0.009 0.063,0.024 0.111,0.049 0.136,0.04 0.336,0.111 0.592,0.208 0.152,0.056 0.328,0.111 0.521,0.185 0.016,0.031 0.032,0.063 0.048,0.095 0.976,2.249 2.152,4.296 3.488,6.128 7.393,4.656 23.623,4.696 31.647,-12.968 0.048,-2.144 -0.112,-4.352 -0.487,-6.6 v -0.016 c 0.072,-0.168 0.136,-0.336 0.199,-0.513 0.545,-1.503 1.217,5.874 0.592,7.354 z"
           id="path128" />
        <path
           style="fill:#ffffff"
           inkscape:connector-curvature="0"
           d="m 381.94,341.48 c -2.525,-0.146 -4.438,-2.637 -4.267,-5.574 0.167,-2.932 2.345,-5.197 4.864,-5.057 2.52,0.14 4.43,2.637 4.268,5.575 -0.166,2.931 -2.345,5.196 -4.865,5.056 z"
           id="path130" />
        <path
           style="fill:#ffffff"
           inkscape:connector-curvature="0"
           d="m 377.36,348.12 c 0,2.01 -1.496,3.629 -3.34,3.629 -1.842,0 -3.333,-1.619 -3.333,-3.629 0,-2.008 1.491,-3.629 3.333,-3.629 1.844,0 3.34,1.621 3.34,3.629 z"
           id="path132" />
        <ellipse
           style="fill:#010101;stroke:#010101;stroke-width:0.9095;stroke-miterlimit:10"
           cx="342.20999"
           cy="368.79001"
           rx="13.121"
           ry="7.2680001"
           stroke-miterlimit="10"
           id="ellipse134" />
        <ellipse
           style="fill:#ffffff"
           cx="342.20999"
           cy="364.73001"
           rx="6.671"
           ry="2.0469999"
           id="ellipse136" />
        <path
           style="fill:#814734"
           inkscape:connector-curvature="0"
           d="m 262.12,464.57 c -13.27,8.918 -26.857,46.065 -20.297,60.646 4.286,9.526 29.305,12.465 39.742,12.903 7.072,0.297 24.018,-0.328 27.568,-6.451 12.342,-21.291 -24.465,-70.073 -29.545,-75.153 -4.18,-4.18 -12.562,4.758 -17.468,8.055 z"
           id="path138" />
        <path
           style="fill:#d8bd8f"
           inkscape:connector-curvature="0"
           d="m 241.01,522.94 c 1.696,-21.453 28.028,-8.844 28.028,-8.844 0,0 12.895,-14.13 25.577,0 2.836,3.159 13.435,-17.568 16.98,0 0.866,4.289 8.395,30.93 -35.717,25.033 -9.955,-1.329 -35.758,-4.922 -34.868,-16.189 z"
           id="path140" />
        <path
           style="fill:#d8bd8f"
           inkscape:connector-curvature="0"
           d="m 322.81,522.7 c 0,-41.566 32.966,-5.017 33.538,-14.093 1.131,-17.928 18.103,-4.541 18.103,-4.541 0,0 2.745,-8.87 7.526,-4.09 0.65,0.651 18.018,37.745 -16.879,35.255 -35.914,-2.562 -42.288,-8.579 -42.288,-12.531 z"
           id="path142" />
      </g>
    </g>
  </g>
</svg>
