<?xml version="1.0" encoding="UTF-8" standalone="no"?>
<!-- Created with Inkscape (http://www.inkscape.org/) -->

<svg
   xmlns:dc="http://purl.org/dc/elements/1.1/"
   xmlns:cc="http://creativecommons.org/ns#"
   xmlns:rdf="http://www.w3.org/1999/02/22-rdf-syntax-ns#"
   xmlns:svg="http://www.w3.org/2000/svg"
   xmlns="http://www.w3.org/2000/svg"
   xmlns:sodipodi="http://sodipodi.sourceforge.net/DTD/sodipodi-0.dtd"
   xmlns:inkscape="http://www.inkscape.org/namespaces/inkscape"
   version="1.1"
   id="svg61"
   width="736"
   height="613"
   viewBox="0 0 736 613"
   sodipodi:docname="rabbit.svg"
   inkscape:version="0.92.2 5c3e80d, 2017-08-06">
  <metadata
     id="metadata67">
    <rdf:RDF>
      <cc:Work
         rdf:about="">
        <dc:format>image/svg+xml</dc:format>
        <dc:type
           rdf:resource="http://purl.org/dc/dcmitype/StillImage" />
        <dc:title></dc:title>
      </cc:Work>
    </rdf:RDF>
  </metadata>
  <defs
     id="defs65" />
  <sodipodi:namedview
     pagecolor="#ffffff"
     bordercolor="#666666"
     borderopacity="1"
     objecttolerance="10"
     gridtolerance="10"
     guidetolerance="10"
     inkscape:pageopacity="0"
     inkscape:pageshadow="2"
     inkscape:window-width="1712"
     inkscape:window-height="963"
     id="namedview63"
     showgrid="false"
     inkscape:zoom="1"
     inkscape:cx="407.01167"
     inkscape:cy="245.16157"
     inkscape:window-x="89"
     inkscape:window-y="33"
     inkscape:window-maximized="0"
     inkscape:current-layer="svg61" />
  <g
     id="g959">
    <circle
       style="fill:#fff6d5;fill-opacity:1;stroke-width:0.75693202"
       id="circle100"
       cx="393.70929"
       cy="347.14606"
       r="9.0206432" />
    <circle
       r="9.0206432"
       cy="350.68402"
       cx="405.81287"
       id="path98"
       style="fill:#fff6d5;fill-opacity:1;stroke-width:0.75693202" />
    <rect
       y="316.56232"
       x="335.58051"
       height="84.26857"
       width="45.294357"
       id="rect88"
       style="fill:#fff6d5;fill-opacity:1" />
    <rect
       transform="matrix(0.47291914,-0.88110583,0.51234202,0.85878149,0,0)"
       style="fill:#fff6d5;fill-opacity:1;stroke-width:0.63010335"
       id="rect90"
       width="27.381353"
       height="55.345001"
       x="180.57436"
       y="398.88763" />
    <rect
       y="162.41238"
       x="479.88559"
       height="62.811306"
       width="23.229189"
       id="rect92"
       style="fill:#fff6d5;fill-opacity:1;stroke-width:0.61827415"
       transform="matrix(0.99908504,0.04276779,-0.45448957,0.89075206,0,0)" />
    <circle
       r="8.9435129"
       cy="336.36371"
       cx="388.59354"
       id="path94"
       style="fill:#fff6d5;fill-opacity:1;stroke-width:0.73891443" />
    <path
       sodipodi:nodetypes="ssccccccsccccsscccccccsssccccccssccccccsssssccsssscssssccssscccssccsccccscscsscsccscsccccscccsscsscccssc"
       inkscape:connector-curvature="0"
       id="path75"
       d="m 292.15714,157.13554 c -5.75755,0.0903 -10.04708,2.27248 -15.56445,7.53516 -11.46262,10.93349 -17.87822,24.87694 -17.76367,38.60547 0.3206,15.73588 11.6536,41.5505 19.45703,49.89453 4.08771,4.07889 8.759,3.79075 12.96289,-0.79883 l 3.25195,-3.54883 0.52344,7.29883 c 1.74585,19.31773 15.35636,36.35724 29.16211,47.01562 4.72103,3.96949 8.58203,7.62755 8.58203,8.1289 0,0.50134 -1.54944,2.62632 -3.44336,4.72266 -4.42089,4.8934 -5.24005,9.32158 -3.23242,17.45703 1.29013,5.228 1.37244,7.5119 0.45507,12.67578 -1.5338,8.63395 -2.09374,9.18882 -6.83593,6.76953 -5.4479,-2.77931 -9.2883,-2.52662 -13.08008,0.86133 -2.67381,2.38905 -3.24348,3.7073 -3.63477,8.42578 -0.25511,3.07635 0.0845,7.8756 0.75391,10.66602 1.61433,6.72925 7.88732,16.25307 13.21875,20.06836 7.31015,5.23133 8.0224,6.00192 7.2207,7.81836 -0.40986,0.92863 -0.94407,3.37461 -1.1875,5.43359 -0.37771,3.19485 -0.0972,3.89228 1.91211,4.75586 0.42404,0.18223 1.35197,0.32867 2.57031,0.44336 H 341.913 c 8.42852,-0.50561 9.85547,-1.67776 9.85547,-6.13477 0,-2.12618 0.42633,-2.30859 5.38867,-2.30859 5.35601,0 5.39322,0.0203 6.03906,3.46289 0.55156,2.94006 1.21086,3.61915 4.36133,4.49414 0.64092,0.178 1.73022,0.33937 2.97266,0.48633 h 18.09961 c 3.5512,-0.7397 4.41118,-2.32559 3.71875,-5.35156 -2.1365,-9.3366 -2.26271,-8.83933 3.5625,-14.03125 8.53024,-7.60289 14.22935,-21.94142 12.46289,-31.35743 -1.50213,-8.00706 -9.06278,-12.58658 -15.38282,-9.31836 -3.60483,1.86413 -4.12219,1.40444 -6.71875,-5.98632 -1.6834,-4.79156 -1.69271,-5.39749 -0.14843,-9.92969 3.08629,-9.05777 2.26621,-13.74977 -3.85938,-22.07617 -1.47519,-2.00521 -1.3193,-2.29264 3.22656,-5.94141 16.91642,-15.08267 31.15774,-28.11003 34.42774,-49.10546 l 1.08984,-7.32226 2.95703,2.48828 c 6.03723,5.08 12.11403,2.52963 18.51172,-7.76953 11.40207,-18.35536 15.79238,-35.3189 12.92188,-49.9336 -1.87503,-9.54637 -5.16191,-16.36059 -12.46289,-25.84375 -7.67398,-9.96765 -13.92245,-13.40874 -22.88868,-12.60351 -7.96158,0.715 -10.93102,2.30475 -16.99414,9.10742 -7.16996,8.04452 -13.21654,19.31056 -17.92382,33.39258 -2.27673,6.81095 -4.6255,12.68413 -5.21875,13.05078 -0.59324,0.36664 -4.80436,0.30405 -9.35938,-0.13868 -4.55502,-0.44272 -14.69053,-0.52608 -22.52344,-0.18554 -11.50555,0.50021 -14.32483,0.35912 -14.66797,-0.73438 -7.30435,-23.2771 -11.10954,-31.72056 -19.0664,-42.29883 -5.70508,-7.58463 -11.10716,-11.23351 -17.88281,-12.08007 -1.51828,-0.1897 -2.92525,-0.28061 -4.25391,-0.25977 z m 8.62109,9.78516 c 2.77167,0 14.70706,19.36723 21.63086,35.09961 4.97314,11.30006 5.30015,13.59736 2.10938,14.79101 -6.23386,2.33207 -6.50472,2.29939 -9.03125,-1.09961 -6.39215,-8.59953 -19.70179,-34.98546 -19.71289,-39.08008 -0.006,-2.374 3.77407,-9.71093 5.0039,-9.71093 z m 112.39258,0 c 2.15651,0 5.87955,7.84446 5.24024,11.04101 -0.86891,4.34455 -10.88726,24.43184 -16.5625,33.20899 -2.75611,4.2625 -5.36357,7.72756 -5.79493,7.69922 -0.43136,-0.0283 -2.51949,-0.77153 -4.64062,-1.65039 -3.61543,-1.49802 -3.82324,-1.81072 -3.30664,-4.99415 1.30989,-8.07191 21.90892,-45.30468 25.06445,-45.30468 z m 8.59766,22.54687 c 0.0418,-0.006 0.0767,5.7e-4 0.10742,0.0195 1.40066,0.86566 1.05854,16.58552 -0.69531,31.9336 -0.87989,7.7 -1.92442,15.35 -2.32227,17 l -0.72461,3 -2.16211,-4.17188 c -1.18975,-2.29457 -4.64786,-6.85386 -7.68359,-10.13281 -3.03572,-3.27895 -5.51953,-6.17098 -5.51953,-6.42578 0,-0.2548 2.542,-4.2455 5.64844,-8.86719 3.10643,-4.62169 7.20473,-11.66111 9.10742,-15.64453 1.78377,-3.73446 3.61755,-6.61553 4.24414,-6.71094 z m -128.95703,0.5293 c 0.8327,0.14302 2.19602,2.42589 4.33984,6.67383 1.8736,3.7125 5.9284,10.47046 9.01172,15.01758 3.08331,4.54711 5.60547,8.7504 5.60547,9.33984 0,0.58944 -1.99467,3.01048 -4.4336,5.38086 -2.43894,2.37037 -5.85714,6.8296 -7.5957,9.91016 -1.73857,3.08057 -3.32195,5.60156 -3.51953,5.60156 -0.74005,0 -4.35986,-33.18027 -4.52734,-41.5 -0.14606,-7.25492 0.0485,-10.60771 1.11914,-10.42383 z m 61.12304,129.32226 c 0.9692,-0.004 2.0703,0.008 3.33399,0.0195 l 9,0.082 3.25,6.4043 c 1.7875,3.52284 3.25,7.24648 3.25,8.27343 0,1.02695 -1.8,3.82032 -4,6.20703 -4.60606,4.99699 -5.03509,7.88928 -1.51563,10.19532 1.88112,1.23255 3.15354,1.39614 5.25,0.67578 4.88747,-1.67939 5.26563,-0.9452 5.26563,10.16797 0,15.28181 -4.77343,31.45409 -10.92774,37.01562 -1.43222,1.29427 -4.06106,2.07733 -7.90625,2.35547 -5.05264,0.36547 -6.13433,0.10171 -8.79687,-2.13867 -7.44428,-6.26394 -13.36914,-23.16764 -13.36914,-38.14453 v -9.77344 l 3.64062,0.58984 c 8.88286,1.44149 10.46329,-5.18691 2.9043,-12.18359 -3.18388,-2.94708 -3.18915,-4.93475 -0.0332,-11.45703 3.5983,-7.43648 3.86994,-8.26064 10.65429,-8.28906 z"
       style="fill:#d0ad79" />
    <path
       inkscape:connector-curvature="0"
       id="path73"
       d="m 377.37831,246.92075 c -4.88757,0 -7.41733,7.97371 -4.05273,12.77735 2.65835,3.79532 6.81012,2.67539 8.44531,-2.2793 1.56149,-4.73136 -0.85101,-10.49805 -4.39258,-10.49805 z m -19.60937,36 c -9.89017,0 -11.05312,2.81729 -5.06055,12.25 1.99053,3.13324 3.71223,4.75 5.06055,4.75 1.34832,0 3.07197,-1.61676 5.0625,-4.75 5.99257,-9.43271 4.82767,-12.25 -5.0625,-12.25 z"
       style="fill:#48250f" />
    <circle
       r="6.5018096"
       cy="338.64111"
       cx="400.98468"
       id="path96"
       style="fill:#fff6d5;fill-opacity:1;stroke-width:0.42068356" />
    <path
       inkscape:connector-curvature="0"
       id="rect102"
       d="m 338.29972,246.9207 c -4.88757,0 -7.41733,7.97371 -4.05273,12.77735 2.65835,3.79532 6.81012,2.67539 8.44531,-2.2793 1.56149,-4.73136 -0.85101,-10.49805 -4.39258,-10.49805 z"
       style="fill:#48250f;fill-opacity:1" />
    <ellipse
       transform="matrix(0.95050592,0.31070645,-0.23044666,0.97308496,0,0)"
       ry="2.4768367"
       rx="1.2495236"
       cy="135.8129"
       cx="386.71066"
       id="path110"
       style="fill:#fff6d5;fill-opacity:1;stroke-width:0.92419177" />
    <ellipse
       style="fill:#fff6d5;fill-opacity:1;stroke-width:0.92419177"
       id="ellipse114"
       cx="424.84769"
       cy="123.70338"
       rx="1.2495236"
       ry="2.4768367"
       transform="matrix(0.95050592,0.31070645,-0.23044666,0.97308496,0,0)" />
    <path
       sodipodi:nodetypes="cc"
       inkscape:connector-curvature="0"
       id="path122"
       d="m 310.12726,279.94976 c -6.4754,1.08887 -12.85213,-0.26453 -19.44936,3.8399"
       style="fill:#d0ad79;fill-opacity:1;stroke:#d0ad79;stroke-width:0.85551965px;stroke-linecap:butt;stroke-linejoin:miter;stroke-opacity:1" />
    <path
       style="fill:#d0ad79;fill-opacity:1;stroke:#d0ad79;stroke-width:0.85551965px;stroke-linecap:butt;stroke-linejoin:miter;stroke-opacity:1"
       d="m 313.29748,285.54209 c -6.17055,2.24516 -12.68698,2.07065 -18.43046,7.30346"
       id="path931"
       inkscape:connector-curvature="0"
       sodipodi:nodetypes="cc" />
    <path
       sodipodi:nodetypes="cc"
       inkscape:connector-curvature="0"
       id="path933"
       d="m 309.55472,275.18286 c -6.56566,0.0927 -12.66282,-2.21362 -19.80694,0.84111"
       style="fill:#d0ad79;fill-opacity:1;stroke:#d0ad79;stroke-width:0.85551965px;stroke-linecap:butt;stroke-linejoin:miter;stroke-opacity:1" />
    <path
       style="fill:#d0ad79;fill-opacity:1;stroke:#d0ad79;stroke-width:0.85551965px;stroke-linecap:butt;stroke-linejoin:miter;stroke-opacity:1"
       d="m 406.23507,279.89951 c 6.4754,1.08887 12.85213,-0.26453 19.44936,3.8399"
       id="path935"
       inkscape:connector-curvature="0"
       sodipodi:nodetypes="cc" />
    <path
       sodipodi:nodetypes="cc"
       inkscape:connector-curvature="0"
       id="path937"
       d="m 403.06485,285.49184 c 6.17055,2.24516 12.68698,2.07065 18.43046,7.30345"
       style="fill:#d0ad79;fill-opacity:1;stroke:#d0ad79;stroke-width:0.85551965px;stroke-linecap:butt;stroke-linejoin:miter;stroke-opacity:1" />
    <path
       style="fill:#d0ad79;fill-opacity:1;stroke:#d0ad79;stroke-width:0.85551965px;stroke-linecap:butt;stroke-linejoin:miter;stroke-opacity:1"
       d="m 406.80761,275.13261 c 6.56566,0.0927 12.66282,-2.21362 19.80694,0.84111"
       id="path939"
       inkscape:connector-curvature="0"
       sodipodi:nodetypes="cc" />
  </g>
</svg>
